<mxfile host="65bd71144e">
    <diagram id="W3NqQyA0DYsyPUMlNqVw" name="Page-1">
        <mxGraphModel dx="1105" dy="832" grid="1" gridSize="10" guides="1" tooltips="1" connect="1" arrows="1" fold="1" page="1" pageScale="1" pageWidth="850" pageHeight="1100" math="0" shadow="0">
            <root>
                <mxCell id="0"/>
                <mxCell id="1" parent="0"/>
                <mxCell id="140" value="&lt;b&gt;$NOTES&lt;/b&gt;&lt;br&gt;Syntax highlighting here is manual, but maybe someone can &lt;a href=&quot;https://github.com/StateSmith/StateSmith-drawio-plugin/issues/26&quot;&gt;help make it automatic!&lt;/a&gt;" style="shape=rectangle;rounded=1;arcSize=15;absoluteArcSize=1;align=left;verticalAlign=top;whiteSpace=wrap;html=1;spacingLeft=4;strokeWidth=1;strokeColor=default;fillColor=#fff2cc;fontColor=#000000;gradientColor=#ffd966;labelBackgroundColor=none;labelBorderColor=none;" parent="1" vertex="1">
                    <mxGeometry x="40" y="360" width="240" height="70" as="geometry"/>
                </mxCell>
                <mxCell id="141" value="$STATEMACHINE :Â OnOffSm" style="shape=swimlane;rotatable=0;align=center;verticalAlign=top;fontFamily=Lucida Console;startSize=30;fontSize=14;fontStyle=1;swimlaneFillColor=default;rounded=1;arcSize=15;absoluteArcSize=1;fillColor=#1ba1e2;fontColor=#ffffff;strokeColor=#006EAF;" vertex="1" parent="1">
                    <mxGeometry x="40" y="40" width="260" height="268" as="geometry"/>
                </mxCell>
                <mxCell id="142" value=" " style="fontFamily=Lucida Console;align=left;verticalAlign=top;fillColor=none;gradientColor=none;strokeColor=none;rounded=0;spacingLeft=4;resizable=0;movable=0;deletable=0;rotatable=0;autosize=1;" connectable="0" vertex="1" parent="141">
                    <mxGeometry y="30" width="30" height="20" as="geometry"/>
                </mxCell>
                <mxCell id="143" style="edgeStyle=none;html=1;" edge="1" parent="141" source="144" target="145">
                    <mxGeometry relative="1" as="geometry"/>
                </mxCell>
                <mxCell id="144" value="$initial_state" style="shape=ellipse;aspect=fixed;fillColor=#000000;resizable=0;rotatable=0;noLabel=1;editable=0;" vertex="1" parent="141">
                    <mxGeometry x="117.5" y="40" width="25" height="25" as="geometry"/>
                </mxCell>
                <mxCell id="145" value="OFF" style="shape=swimlane;rotatable=0;align=center;verticalAlign=top;fontFamily=Lucida Console;startSize=30;fontSize=14;fontStyle=1;swimlaneFillColor=default;html=1;rounded=1;arcSize=15;absoluteArcSize=1;fillColor=#333333;fontColor=#FAFAFA;" vertex="1" parent="141">
                    <mxGeometry x="20" y="90" width="220" height="60" as="geometry"/>
                </mxCell>
                <mxCell id="146" value="&lt;font color=&quot;#569cd6&quot;&gt;enter &lt;/font&gt;&lt;font color=&quot;#ffd700&quot;&gt;/&lt;/font&gt; &lt;font color=&quot;#dcdcaa&quot;&gt;light_off();&lt;/font&gt;" style="fontFamily=Lucida Console;align=left;verticalAlign=top;fillColor=none;gradientColor=none;strokeColor=none;rounded=0;spacingLeft=4;resizable=0;movable=0;deletable=0;rotatable=0;autosize=1;html=1;" connectable="0" vertex="1" parent="145">
                    <mxGeometry y="30" width="170" height="30" as="geometry"/>
                </mxCell>
                <mxCell id="147" style="edgeStyle=none;html=1;exitX=0.5;exitY=1;exitDx=0;exitDy=0;entryX=0.5;entryY=0;entryDx=0;entryDy=0;fontColor=#DA70D6;" edge="1" parent="141" source="145" target="151">
                    <mxGeometry relative="1" as="geometry">
                        <mxPoint x="85" y="230" as="targetPoint"/>
                    </mxGeometry>
                </mxCell>
                <mxCell id="148" value="INCREASE" style="edgeLabel;html=1;align=center;verticalAlign=middle;resizable=0;points=[];fontColor=#00AAFF;" connectable="0" vertex="1" parent="147">
                    <mxGeometry x="-0.39" y="1" relative="1" as="geometry">
                        <mxPoint x="-36" y="-2" as="offset"/>
                    </mxGeometry>
                </mxCell>
                <mxCell id="149" value="DIM" style="edgeStyle=none;html=1;exitX=0.806;exitY=0.007;exitDx=0;exitDy=0;exitPerimeter=0;fontColor=#00AAFF;entryX=0.75;entryY=1;entryDx=0;entryDy=0;" edge="1" parent="141" source="151" target="145">
                    <mxGeometry x="-0.4364" y="-15" relative="1" as="geometry">
                        <mxPoint as="offset"/>
                        <mxPoint x="175" y="240" as="sourcePoint"/>
                        <mxPoint x="193" y="164" as="targetPoint"/>
                    </mxGeometry>
                </mxCell>
                <mxCell id="150" value=" " style="fontFamily=Lucida Console;align=left;verticalAlign=top;fillColor=none;gradientColor=none;strokeColor=none;rounded=0;spacingLeft=4;resizable=0;movable=0;deletable=0;rotatable=0;autosize=1;" connectable="0" vertex="1" parent="141">
                    <mxGeometry x="20" y="210" width="30" height="20" as="geometry"/>
                </mxCell>
                <mxCell id="151" value="ON1" style="shape=swimlane;rotatable=0;align=center;verticalAlign=top;fontFamily=Lucida Console;startSize=30;fontSize=14;fontStyle=1;swimlaneFillColor=default;html=1;rounded=1;arcSize=15;absoluteArcSize=1;fillColor=#545454;fontColor=#ffffff;strokeColor=#F0F0F0;" vertex="1" parent="141">
                    <mxGeometry x="40" y="190" width="180" height="60" as="geometry"/>
                </mxCell>
                <mxCell id="152" value="&lt;font color=&quot;#569cd6&quot;&gt;enter&lt;/font&gt; &lt;font color=&quot;#ffd700&quot;&gt;/&lt;/font&gt; &lt;font color=&quot;#dcdcaa&quot;&gt;light_blue();&lt;/font&gt;" style="fontFamily=Lucida Console;align=left;verticalAlign=top;fillColor=none;gradientColor=none;strokeColor=none;rounded=0;spacingLeft=4;resizable=0;movable=0;deletable=0;rotatable=0;autosize=1;html=1;" connectable="0" vertex="1" parent="151">
                    <mxGeometry y="30" width="172" height="26" as="geometry"/>
                </mxCell>
                <mxCell id="153" value="" style="shape=image;verticalLabelPosition=bottom;labelBackgroundColor=default;verticalAlign=top;aspect=fixed;imageAspect=0;image=data:image/svg+xml,PHN2ZyB4bWxucz0iaHR0cDovL3d3dy53My5vcmcvMjAwMC9zdmciIHZpZXdCb3g9IjAgMCA2NTkuODUgMTEyNC4yIj4mI3hhOyA8ZGVmcz4mI3hhOyAgPGZpbHRlciBpZD0iYXciPiYjeGE7ICAgPGZlR2F1c3NpYW5CbHVyIHN0ZERldmlhdGlvbj0iMy42MjkwMzkiLz4mI3hhOyAgPC9maWx0ZXI+JiN4YTsgIDxmaWx0ZXIgaGVpZ2h0PSIxLjU2NDQiIHdpZHRoPSIxLjA4OCIgeT0iLS4yODIyMiIgeD0iLS4wNDQwMDMiIGlkPSJhciI+JiN4YTsgICA8ZmVHYXVzc2lhbkJsdXIgc3RkRGV2aWF0aW9uPSIzLjYyOTAzOSIvPiYjeGE7ICA8L2ZpbHRlcj4mI3hhOyAgPGZpbHRlciBoZWlnaHQ9IjEuMjM5MyIgd2lkdGg9IjEuMTQyOCIgeT0iLS4xMTk2NiIgeD0iLS4wNzEzODYiIGlkPSJhdiI+JiN4YTsgICA8ZmVHYXVzc2lhbkJsdXIgc3RkRGV2aWF0aW9uPSIzLjYyOTAzOSIvPiYjeGE7ICA8L2ZpbHRlcj4mI3hhOyAgPGZpbHRlciBoZWlnaHQ9IjEuNzQ5OSIgd2lkdGg9IjEuMTE1OSIgeT0iLS4zNzQ5NSIgeD0iLS4wNTc5NTEiIGlkPSJhdCI+JiN4YTsgICA8ZmVHYXVzc2lhbkJsdXIgc3RkRGV2aWF0aW9uPSIzLjYyOTAzOSIvPiYjeGE7ICA8L2ZpbHRlcj4mI3hhOyAgPGZpbHRlciBoZWlnaHQ9IjEuNzc4IiB3aWR0aD0iMS4xMTYzIiB5PSItLjM4OTAyIiB4PSItLjA1ODEyOSIgaWQ9ImFzIj4mI3hhOyAgIDxmZUdhdXNzaWFuQmx1ciBzdGREZXZpYXRpb249IjMuNjI5MDM5Ii8+JiN4YTsgIDwvZmlsdGVyPiYjeGE7ICA8ZmlsdGVyIGhlaWdodD0iMS43NjY4IiB3aWR0aD0iMS4xMzA0IiB5PSItLjM4MzM4IiB4PSItLjA2NTE3OSIgaWQ9ImF1Ij4mI3hhOyAgIDxmZUdhdXNzaWFuQmx1ciBzdGREZXZpYXRpb249IjMuNjI5MDM5Ii8+JiN4YTsgIDwvZmlsdGVyPiYjeGE7ICA8ZmlsdGVyIGhlaWdodD0iMS41NDI3IiB3aWR0aD0iMS4wNzc1IiB5PSItLjI3MTM0IiB4PSItLjAzODczMyIgaWQ9ImF4Ij4mI3hhOyAgIDxmZUdhdXNzaWFuQmx1ciBzdGREZXZpYXRpb249IjMuNjI5MDM5Ii8+JiN4YTsgIDwvZmlsdGVyPiYjeGE7ICA8ZmlsdGVyIGhlaWdodD0iMS41OTE4IiB3aWR0aD0iMS44MDkzIiB5PSItLjI5NTkiIHg9Ii0uNDA0NjYiIGlkPSJibCI+JiN4YTsgICA8ZmVHYXVzc2lhbkJsdXIgc3RkRGV2aWF0aW9uPSIyLjYzMTYwNiIvPiYjeGE7ICA8L2ZpbHRlcj4mI3hhOyAgPGZpbHRlciBoZWlnaHQ9IjIuMjE1MiIgd2lkdGg9IjEuMDcwMiIgeT0iLS42MDc2IiB4PSItLjAzNTExNSIgaWQ9ImF6Ij4mI3hhOyAgIDxmZUdhdXNzaWFuQmx1ciBzdGREZXZpYXRpb249IjMuNjI5MDM5Ii8+JiN4YTsgIDwvZmlsdGVyPiYjeGE7ICA8ZmlsdGVyIGhlaWdodD0iMS41OTM5IiB3aWR0aD0iMS42MDgiIHk9Ii0uMjk2OTQiIHg9Ii0uMzA0MDIiIGlkPSJiayI+JiN4YTsgICA8ZmVHYXVzc2lhbkJsdXIgc3RkRGV2aWF0aW9uPSIyLjYzMTYwNiIvPiYjeGE7ICA8L2ZpbHRlcj4mI3hhOyAgPGZpbHRlciBoZWlnaHQ9IjEuNjMxNSIgd2lkdGg9IjEuODY0MiIgeT0iLS4zMTU3NCIgeD0iLS40MzIwOCIgaWQ9ImJpIj4mI3hhOyAgIDxmZUdhdXNzaWFuQmx1ciBzdGREZXZpYXRpb249IjIuNjMxNjA2Ii8+JiN4YTsgIDwvZmlsdGVyPiYjeGE7ICA8ZmlsdGVyIGlkPSJiYSI+JiN4YTsgICA8ZmVHYXVzc2lhbkJsdXIgc3RkRGV2aWF0aW9uPSIzLjYyOTAzOSIvPiYjeGE7ICA8L2ZpbHRlcj4mI3hhOyAgPGZpbHRlciBoZWlnaHQ9IjEuNTc5MyIgd2lkdGg9IjEuNjc5MiIgeT0iLS4yODk2MyIgeD0iLS4zMzk2MSIgaWQ9ImJqIj4mI3hhOyAgIDxmZUdhdXNzaWFuQmx1ciBzdGREZXZpYXRpb249IjIuNjMxNjA2Ii8+JiN4YTsgIDwvZmlsdGVyPiYjeGE7ICA8ZmlsdGVyIGhlaWdodD0iMS41NDA3IiB3aWR0aD0iMS4wNzM0IiB5PSItLjI3MDM0IiB4PSItLjAzNjcyMyIgaWQ9ImF5Ij4mI3hhOyAgIDxmZUdhdXNzaWFuQmx1ciBzdGREZXZpYXRpb249IjMuNjI5MDM5Ii8+JiN4YTsgIDwvZmlsdGVyPiYjeGE7ICA8ZmlsdGVyIGhlaWdodD0iMi4wMjU2IiB3aWR0aD0iMS4wNDk0IiB5PSItLjUxMjgxIiB4PSItLjAyNDY4IiBpZD0iYWkiPiYjeGE7ICAgPGZlR2F1c3NpYW5CbHVyIHN0ZERldmlhdGlvbj0iMy42MjkwMzkiLz4mI3hhOyAgPC9maWx0ZXI+JiN4YTsgIDxmaWx0ZXIgaGVpZ2h0PSIxLjg5MDEiIHdpZHRoPSIxLjA0OSIgeT0iLS40NDUwNSIgeD0iLS4wMjQ0NzUiIGlkPSJhaiI+JiN4YTsgICA8ZmVHYXVzc2lhbkJsdXIgc3RkRGV2aWF0aW9uPSIzLjYyOTAzOSIvPiYjeGE7ICA8L2ZpbHRlcj4mI3hhOyAgPGZpbHRlciBoZWlnaHQ9IjIuMDI2NCIgd2lkdGg9IjEuMDUxMiIgeT0iLS41MTMxOCIgeD0iLS4wMjU1ODgiIGlkPSJibyI+JiN4YTsgICA8ZmVHYXVzc2lhbkJsdXIgc3RkRGV2aWF0aW9uPSIzLjYyOTAzOSIvPiYjeGE7ICA8L2ZpbHRlcj4mI3hhOyAgPGZpbHRlciBoZWlnaHQ9IjIuNjEzNyIgd2lkdGg9IjEuMDQ1OCIgeT0iLS44MDY4MyIgeD0iLS4wMjI5MTIiIGlkPSJibSI+JiN4YTsgICA8ZmVHYXVzc2lhbkJsdXIgc3RkRGV2aWF0aW9uPSIzLjYyOTAzOSIvPiYjeGE7ICA8L2ZpbHRlcj4mI3hhOyAgPGZpbHRlciBpZD0iYmgiPiYjeGE7ICAgPGZlR2F1c3NpYW5CbHVyIHN0ZERldmlhdGlvbj0iMjQuMjcwNTYxIi8+JiN4YTsgIDwvZmlsdGVyPiYjeGE7ICA8ZmlsdGVyIGhlaWdodD0iMS44Njc2IiB3aWR0aD0iMS4wNTA0IiB5PSItLjQzMzgiIHg9Ii0uMDI1MTc4IiBpZD0iYm4iPiYjeGE7ICAgPGZlR2F1c3NpYW5CbHVyIHN0ZERldmlhdGlvbj0iMy42MjkwMzkiLz4mI3hhOyAgPC9maWx0ZXI+JiN4YTsgIDxmaWx0ZXIgaGVpZ2h0PSIxLjU4MiIgd2lkdGg9IjEuMDk4MiIgeT0iLS4yOTA5OSIgeD0iLS4wNDkwNzkiIGlkPSJhcSI+JiN4YTsgICA8ZmVHYXVzc2lhbkJsdXIgc3RkRGV2aWF0aW9uPSIzLjYyOTAzOSIvPiYjeGE7ICA8L2ZpbHRlcj4mI3hhOyAgPGZpbHRlciBoZWlnaHQ9IjEuNjg2MiIgd2lkdGg9IjEuMDk3OCIgeT0iLS4zNDMwOCIgeD0iLS4wNDg5MTgiIGlkPSJhcCI+JiN4YTsgICA8ZmVHYXVzc2lhbkJsdXIgc3RkRGV2aWF0aW9uPSIzLjYyOTAzOSIvPiYjeGE7ICA8L2ZpbHRlcj4mI3hhOyAgPGZpbHRlciBoZWlnaHQ9IjIuNjI1NiIgd2lkdGg9IjEuMTU5NSIgeT0iLS44MTI3OCIgeD0iLS4wNzk3MjUiIGlkPSJhbiI+JiN4YTsgICA8ZmVHYXVzc2lhbkJsdXIgc3RkRGV2aWF0aW9uPSIzLjYyOTAzOSIvPiYjeGE7ICA8L2ZpbHRlcj4mI3hhOyAgPGZpbHRlciBoZWlnaHQ9IjIuMDExNyIgd2lkdGg9IjEuMjA1NSIgeT0iLS41MDU4MyIgeD0iLS4xMDI3NSIgaWQ9ImFvIj4mI3hhOyAgIDxmZUdhdXNzaWFuQmx1ciBzdGREZXZpYXRpb249IjMuNjI5MDM5Ii8+JiN4YTsgIDwvZmlsdGVyPiYjeGE7ICA8ZmlsdGVyIGhlaWdodD0iMi4zNzc1IiB3aWR0aD0iMS4xNjAyIiB5PSItLjY4ODc2IiB4PSItLjA4MDExMSIgaWQ9ImFtIj4mI3hhOyAgIDxmZUdhdXNzaWFuQmx1ciBzdGREZXZpYXRpb249IjMuNjI5MDM5Ii8+JiN4YTsgIDwvZmlsdGVyPiYjeGE7ICA8ZmlsdGVyIGhlaWdodD0iMS44MzI2IiB3aWR0aD0iMS4wNDY4IiB5PSItLjQxNjMiIHg9Ii0uMDIzMzk1IiBpZD0iYWsiPiYjeGE7ICAgPGZlR2F1c3NpYW5CbHVyIHN0ZERldmlhdGlvbj0iMy42MjkwMzkiLz4mI3hhOyAgPC9maWx0ZXI+JiN4YTsgIDxmaWx0ZXIgaGVpZ2h0PSIyLjYyNjIiIHdpZHRoPSIxLjM1MjkiIHk9Ii0uODEzMDgiIHg9Ii0uMTc2NDYiIGlkPSJhbCI+JiN4YTsgICA8ZmVHYXVzc2lhbkJsdXIgc3RkRGV2aWF0aW9uPSIzLjYyOTAzOSIvPiYjeGE7ICA8L2ZpbHRlcj4mI3hhOyAgPGxpbmVhckdyYWRpZW50IHkyPSIuNTI1MTQiIHkxPSIuNTI1MTQiIHgyPSIxLjAwMTciIHgxPSItLjAwMDE1NiIgaWQ9ImJjIj4mI3hhOyAgIDxzdG9wIG9mZnNldD0iMCIgc3RvcC1jb2xvcj0iIzljOTM4YiIvPiYjeGE7ICAgPHN0b3Agb2Zmc2V0PSIuMTUwNDQiIHN0b3AtY29sb3I9IiM5YzkzOGIiLz4mI3hhOyAgIDxzdG9wIG9mZnNldD0iLjI1NTciIHN0b3AtY29sb3I9IiNlY2VhZTkiLz4mI3hhOyAgIDxzdG9wIG9mZnNldD0iLjcxNjc3IiBzdG9wLWNvbG9yPSIjZWNlYWU5Ii8+JiN4YTsgICA8c3RvcCBvZmZzZXQ9IjEiIHN0b3AtY29sb3I9IiM3NjZjNjQiLz4mI3hhOyAgPC9saW5lYXJHcmFkaWVudD4mI3hhOyAgPGxpbmVhckdyYWRpZW50IHkyPSIuNTAwMTIiIHkxPSIuNTAwMTIiIHgyPSIxLjAxNTIiIHgxPSItLjAxNTIyNSIgaWQ9ImJkIj4mI3hhOyAgIDxzdG9wIG9mZnNldD0iMCIgc3RvcC1vcGFjaXR5PSIuMTE5IiBzdG9wLWNvbG9yPSIjZjNmMGVkIi8+JiN4YTsgICA8c3RvcCBvZmZzZXQ9Ii41IiBzdG9wLW9wYWNpdHk9Ii40OTgiIHN0b3AtY29sb3I9IiNmM2YwZWQiLz4mI3hhOyAgIDxzdG9wIG9mZnNldD0iMSIgc3RvcC1vcGFjaXR5PSIwIiBzdG9wLWNvbG9yPSIjZjNmMGVkIi8+JiN4YTsgIDwvbGluZWFyR3JhZGllbnQ+JiN4YTsgIDxsaW5lYXJHcmFkaWVudCB5Mj0iLjkxMjA4IiB5MT0iLjA4NzkyIiB4Mj0iLjUwMDAxIiB4MT0iLjUwMDAxIiBpZD0iYmciPiYjeGE7ICAgPHN0b3Agb2Zmc2V0PSIwIiBzdG9wLWNvbG9yPSIjMDIwMjAyIi8+JiN4YTsgICA8c3RvcCBvZmZzZXQ9Ii45MzQzOCIgc3RvcC1jb2xvcj0iIzAyMDIwMiIvPiYjeGE7ICAgPHN0b3Agb2Zmc2V0PSIuOTY4NjciIHN0b3AtY29sb3I9IiM5ZTljOWEiLz4mI3hhOyAgIDxzdG9wIG9mZnNldD0iMSIgc3RvcC1jb2xvcj0iI2I1YTE4MyIvPiYjeGE7ICA8L2xpbmVhckdyYWRpZW50PiYjeGE7ICA8bGluZWFyR3JhZGllbnQgeTI9Ii41IiB5MT0iLjUiIHgyPSIxLjAwMjgiIHgxPSItLjAwMjg2MyIgaWQ9ImJmIj4mI3hhOyAgIDxzdG9wIG9mZnNldD0iMCIgc3RvcC1vcGFjaXR5PSIuMTk1IiBzdG9wLWNvbG9yPSIjZjhmOGY4Ii8+JiN4YTsgICA8c3RvcCBvZmZzZXQ9Ii42OTkxMiIgc3RvcC1vcGFjaXR5PSIuNDQ3IiBzdG9wLWNvbG9yPSIjZjhmOGY4Ii8+JiN4YTsgICA8c3RvcCBvZmZzZXQ9IjEiIHN0b3Atb3BhY2l0eT0iLjIzOSIgc3RvcC1jb2xvcj0iI2Y4ZjhmOCIvPiYjeGE7ICA8L2xpbmVhckdyYWRpZW50PiYjeGE7ICA8bGluZWFyR3JhZGllbnQgeTI9Ii45Nzg2OCIgeTE9Ii4wMjEzMDIiIHgyPSIuNSIgeDE9Ii41IiBpZD0iYmIiPiYjeGE7ICAgPHN0b3Agb2Zmc2V0PSIwIiBzdG9wLWNvbG9yPSIjNjg2NTYyIi8+JiN4YTsgICA8c3RvcCBvZmZzZXQ9Ii4xODc3MiIgc3RvcC1jb2xvcj0iIzUzNTA0ZCIvPiYjeGE7ICAgPHN0b3Agb2Zmc2V0PSIuMzA5OTIiIHN0b3AtY29sb3I9IiM4ZjhjODgiLz4mI3hhOyAgIDxzdG9wIG9mZnNldD0iMSIgc3RvcC1jb2xvcj0iI2JlYmNiYSIvPiYjeGE7ICA8L2xpbmVhckdyYWRpZW50PiYjeGE7ICA8bGluZWFyR3JhZGllbnQgeTI9Ii41MTAzNCIgeTE9Ii41MTAzNCIgeDE9Ii01ZS02IiBpZD0iYmUiPiYjeGE7ICAgPHN0b3Agb2Zmc2V0PSIwIiBzdG9wLWNvbG9yPSIjN2U3ZDdlIi8+JiN4YTsgICA8c3RvcCBvZmZzZXQ9Ii43OTY0NiIgc3RvcC1jb2xvcj0iIzdlN2Q3ZSIvPiYjeGE7ICAgPHN0b3Agb2Zmc2V0PSIxIiBzdG9wLWNvbG9yPSIjNTA1MDUwIi8+JiN4YTsgIDwvbGluZWFyR3JhZGllbnQ+JiN4YTsgIDxyYWRpYWxHcmFkaWVudCBzcHJlYWRNZXRob2Q9InJlZmxlY3QiIGlkPSJicCI+JiN4YTsgICA8c3RvcCBvZmZzZXQ9IjAiIHN0b3Atb3BhY2l0eT0iLjk5NiIgc3RvcC1jb2xvcj0iI2ZmMCIvPiYjeGE7ICAgPHN0b3Agb2Zmc2V0PSIxIiBzdG9wLW9wYWNpdHk9Ii45OTYiIHN0b3AtY29sb3I9IiNmZjdmMDAiLz4mI3hhOyAgPC9yYWRpYWxHcmFkaWVudD4mI3hhOyA8L2RlZnM+JiN4YTsgPGcgZmlsbC1ydWxlPSJldmVub2RkIj4mI3hhOyAgPHBhdGggc3Ryb2tlLXdpZHRoPSIuNzMxIiBzdHJva2U9IiM2NjYiIGZpbGw9IiNiM2IzYjMiIGQ9Im00NTkuNjYgODI4LjA2czYuNTQxIDMuMjcxNyAxOC40NTUtMy44NDk1YzE1LjQzNy05LjIyNzUgMzUuMzQ4LTQ2Ljk2NiAzNS44MzYtNTcuNzQ0IDIuMDU0LTQ1LjM3OSA4LjIxOTUtOTEuNDIxIDIwLjc5Ni0xMjIuMDYgMjguNTM0LTY5LjUwNiAxMjQuNzQtMTc0LjE2IDEyNC43My0zMzAuOTQtMC4wMDY1OTItMTQ0LjUzLTE0Mi41NC0zMTEuODUtMzA5LjUzLTMxMy4wOS0yNzEuNDEtMi4wNTE2LTM0Ni45NSAyMjAuODItMzQ5LjUyIDMyOC45LTEuOTY0IDgyLjU3MyA0My40OTYgMTcyLjcgMTA3LjAyIDI4MC40OSA2My41MTggMTA3Ljc5IDMwLjA2MSAxMTkuOTggNDkuNjg3IDE2Ny45NSAxMy44MzEgMzMuODA0IDMwLjM3MSA0OC40IDMwLjM3MSA0OC40bDI3Mi4xNiAxLjk0NDN6Ii8+JiN4YTsgIDxwYXRoIHN0cm9rZS13aWR0aD0iLjk1MyIgZmlsdGVyPSJ1cmwoI2JoKSIgZmlsbD0iI2ZmZiIgZD0ibTQ3MC41IDgyNi43N2MxNC42NDYtOC45Mjg2IDMzLjE0OS02My4xMTQgMzMuMDg4LTczLjQ5OC0wLjI1MjQ0LTQzLjY3NyA3Ljc1NjktODcuOTkyIDE5LjYyNS0xMTcuNDggMjYuOTI4LTY2LjkgMTE3LjcyLTE2Ny42MyAxMTcuNzEtMzE4LjUzLTAuMDA2MTY1LTEzOS4xMS0xMzQuNTItMzAwLjE1LTI5Mi4xMS0zMDEuMzUtMjU2LjEzLTEuOTc0Ny0zMjcuNDIgMjEyLjU0LTMyOS44NSAzMTYuNTYtMS44NTM0IDc5LjQ3NiA0MS4wNDggMTY2LjIyIDEwMC45OSAyNjkuOTcgNTkuOTQzIDEwMy43NSAyOC4zNjkgMTE1LjQ4IDQ2Ljg5IDE2MS42NSAxMy4wNTMgMzIuNTM2IDI3LjkzIDU5LjI0MSAyNy45MyA1OS4yNDFzMjY0LjQyIDEwLjMyMSAyNzUuNzIgMy40MzAxeiIvPiYjeGE7ICA8cGF0aCBzdHJva2Utd2lkdGg9Ii43MzEiIHN0cm9rZT0iIzAwMCIgZmlsbD0idXJsKCNiZykiIGQ9Im0yNDguMjMgMTA4MXMxMy41NzIgMTYuMjg2IDIxLjcxNSAyMy4wNzJjOC4xNDMgNi43ODU2IDIuNjc3MSA3LjEwNTIgMTguNjI5IDEyLjA0NCAxNS45NTIgNC45MzgyIDI2LjE4IDguMzE0IDQ1LjE4IDcuNzA5NSAxOS4wMzktMC42MDU0NyAyMi4wODQtNC4zMzc5IDM0LjgwMi03LjA3MDggMTIuNzE4LTIuNzMyNyAxNi4wNjktMy44NjA2IDE2LjA2OS0zLjg2MDZsMzguNjc5LTM4LjY3OS0xNzUuMDcgNi43ODU2eiIvPiYjeGE7ICA8cGF0aCBmaWxsPSJ1cmwoI2JlKSIgZD0ibTQ3OS41OCA4MjYuMDZzLTIuNDg2MiAxLjc4Ni04LjczNDkgNC4zOTcyYy0xLjY4OTEgMC43MDU4MS0xLjYyMyAxMS41NjMtMS41Mzg2IDE5Ljg1OSAwLjA2OTc2MyA2LjY4NTMgOC4xNCAxMC42NzggOC4xNCAyMS4zMTQgMCAxMC42MzctOS4wMzA5IDYuMjcwNC0xMC45NjUgMTMuMDM5LTEuOTMzOSA2Ljc2ODcgMC4xNTgzOSAxMS44MzggMC4xNTgzOSAxMS44MzhzOS4zNDEzIDUuMTEwNSAxMC4zMDggMTIuODQ2YzAuOTY2OTggNy43MzU2LTguNzY3MSA5LjEwNjgtMTEuNjY4IDE0LjkwOS0yLjkwMDkgNS44MDE5IDIuNDg1IDE1Ljc0NyAyLjQ4NSAxNS43NDdzOC43NjctMC43OTcgOC41OTcxIDEwLjI4NWMtMC4xMzM0OCA4LjcwMTUtMTEuNzA5IDkuNTExMS0xMi42NzYgMTUuMzEzLTAuOTY2OTggNS44MDE4LTEuNjUwMiAxMy4yMDQgOC40MDM5IDE1LjM0MiAyLjAwOTkgMC40Mjc0OSA2LjM4NzYgMi43MzYyIDIuODQ4MSAxMi4zMy0yLjg3OTIgNy44MDQtMTIuMjcyIDYuNjkyOC0xMi4yNzIgMTMuNDYyIDAgNi43Njg3LTAuMDUyNzk1IDkuNzk4NSA0Ljc4MiAxMS43MzIgNC44MzQ4IDEuOTM0IDkuNTU4NiA2LjAzMiAyLjY3ODIgMTMuMjI3LTYuNTM0NCA2LjgzMzItMzguNDc2IDQxLjA0NC00OC40MTIgNDMuNzA2LTE4LjE4MiA0Ljg3MjEtNTguOTMyIDYuNTg3Mi04OC45MDggNi41ODcycy03NS4xOTkgMS40NjI2LTkwLjIxNS0yLjU2MWMtMy44NDI5LTEuMDI5NS0zNy4wMi0zMS44OTgtNDAuMzc4LTM4LjIyMS00LjQ2NjctOC40MTA5LTAuOTE4OTgtMTQuNDcyLTEuODgxMS0yMC42OTktMC45MDEtNS44MzEtMy41NTc1LTEuMzQ4Mi04LjM1MTEtNS4zNDQ4LTguOTQzMi03LjQ1NjMtMC43NDQyMy0xNS42NjUgMy4xMjM2LTE3LjU5OCAzLjg2NzgtMS45MzQgNi42NzQ4LTEzLjQ1LTAuMDkzOTY0LTIwLjIxOS02Ljc2ODctNi43Njg3LTkuNzkxNC0xMS42ODctNC4wMTk4LTE3LjIyNCAxMS4zNjUtMTAuOTAyIDcuNjUzMy0xNi4yOCAxLjg1MTYtMjMuMDQ5LTUuODAxOC02Ljc2ODctNS43MzcxLTkuODI2My0zLjM4MTItMTUuNDE5IDIuMzU1OS01LjU5MjIgMTAuMTQ5IDAuNjY1MjggOC4yMTYtMTQuMDg5LTIuMDAxMS0xNS4yNzQtMy4xMDM2LTQuMjI0LTcuODUyOS0xNC43NjItMy4zNzEyLTcuNDgwMiAyLjYwMjEtNDYuNzAxIDIuNjAyMS00Ni43MDFsLTIuMjczOC0zLjMwNTItMS40MjQtMTQuMTUzLTIuOTAwOS0yLjkwMDlzMTQwLjY5LTcuMDExNiAxNjAuOTktNS4wNzc2YzIwLjMwNiAxLjkzMzggMTM0LjY5IDUuMzg3OSAxMzIuNzYgNS4zODc5eiIvPiYjeGE7ICA8ZyBmaWxsPSIjNjQ2NDYwIj4mI3hhOyAgIDxwYXRoIGZpbHRlcj0idXJsKCNiYSkiIGQ9Im0zMDUuNzQgODI5LjY2cy00Ljc2MzYtMC42ODA0OC00LjA4MzEgNi4xMjQ2YzAuNjgwNTQgNi44MDUyIDIuNzIyMSAxNC4yOTEgMi43MjIxIDE0LjI5MXMtNi4xMjQ2LTkuNTI3Mi0yLjcyMjEgNC4wODMxYzMuNDAyNiAxMy42MSA1LjQ0NDIgMTMuNjEgMCAxNi4zMzItNS40NDQxIDIuNzIyMiAxMi45MyAxNC45NzEgMTIuOTMgMTQuOTcxcy04Ny4xMDYgOC44NDY4LTk4LjY3NSA4Ljg0NjggODkuMTQ4IDUuNDQ0IDk3LjMxNCA0Ljc2MzVjOC4xNjYyLTAuNjgwNDgtMi4wNDE1IDIuNzIyMi01LjQ0NDEgNC43NjM3czIzLjEzOCA0LjA4MyAzOS40NyAyLjA0MTUgNi4xMjQ3LTYuMTI0Ny0zLjQwMjYtNi44MDUyYy05LjUyNzItMC42ODA0OCAxMS41NjktMC42ODA0OCAyOS4yNjItMi4wNDE0IDE3LjY5NC0xLjM2MS0xNC45NzEtOC4xNjYyLTI1LjE3OS05LjUyNzItMTAuMjA4LTEuMzYxMS0yNS4xNzktNC43NjM3LTYuODA1Mi00Ljc2MzdzMjUuMTc5IDIuNzIyMSAyNS4xNzktMi43MjJjMC01LjQ0NDIgMi43MjIxLTI0LjQ5OSAwLTI2LjU0LTIuNzIyMS0yLjA0MTUgNC4wODMxIDAuNjgwNTQtMC42ODA1MS02LjgwNTEtNC43NjM2LTcuNDg1Ny0yMi40NTctNy40ODU3LTIyLjQ1Ny03LjQ4NTdzMTguMzc0LTQuMDgzMSAzMy4zNDUtNi4xMjQ2YzE0Ljk3MS0yLjA0MTYtNzEuNDU0LTIuNzIyLTcwLjc3NC0zLjQwMjZ6Ii8+JiN4YTsgICA8cGF0aCBmaWx0ZXI9InVybCgjYXopIiBkPSJtMjA5LjEgOTE4LjEzczQwLjgzMSAyLjA0MTYgNjkuNDEzLTAuNjgwNTRjMjguNTgyLTIuNzIyIDQ0LjkxNC00LjA4MzEgNjYuMDEtMi43MjIgMjEuMDk2IDEuMzYxIDE5LjczNSAwLjY4MDQyIDM4LjEwOS0wLjY4MDU0czEuMzYxLTYuODA1Mi0yMS43NzYtNS40NDQyYy0yMy4xMzggMS4zNjExLTQ2Ljk1Ni0xLjM2MS02Ni4wMSAyLjA0MTctMTkuMDU0IDMuNDAyNS0zNi43NDggMi43MjItNDkuNjc4IDIuNzIycy0zNi43NDggNS40NDQxLTM2LjA2NyA0Ljc2MzZ6Ii8+JiN4YTsgICA8cGF0aCBmaWx0ZXI9InVybCgjYXkpIiBkPSJtMjE2LjU5IDkzNy4xOGMyLjcyMjEgMCAzNy40MjgtNC43NjM2IDYxLjkyNy01LjQ0NDIgMjQuNDk5LTAuNjgwNDggMzguNzg5LTYuODA1MSA1OS44ODYtNC43NjM2IDIxLjA5NiAyLjA0MTYgMjcuOTAxIDIuNzIyMSA0My41NTMgNC4wODMxczYuMTI0Ni0wLjY4MDU0LTkuNTI3MyAyLjcyMmMtMTUuNjUyIDMuNDAyNi0zOC4xMDkgOC4xNjYyLTMxLjMwNCA4LjE2NjIgNi44MDUyIDAgMjkuOTQzLTAuNjgwNDggMTkuMDU0IDIuMDQxNi0xMC44ODggMi43MjItMTYuMzMyIDYuMTI0Ni0zOS40NyA2LjEyNDZzLTUzLjA4LTIuNzIyLTMxLjMwNC00Ljc2MzYgNjMuMjg4LTEuMzYxIDM4LjEwOS00LjA4MzEtNTEuNzE5LTIuNzIyMS02Ni42OTEtMi4wNDE2Yy0xNC45NzEgMC42ODA0OC00NC45MTQgMC00NC4yMzQtMi4wNDE2eiIvPiYjeGE7ICAgPHBhdGggZmlsdGVyPSJ1cmwoI2F4KSIgZD0ibTIyNy40OCA5NzUuOTdzNDYuMjc1IDAgNjMuMjg4LTEuMzYxIDE4LjM3NC02LjgwNTIgMzcuNDI4LTYuMTI0NmMxOS4wNTQgMC42ODA1NCAzOS40Ny0yLjA0MTYgNTEuMDM5IDAuNjgwNTQgMTEuNTY5IDIuNzIyIDIxLjA5NiAyLjA0MTUgMC42ODA1NCAzLjQwMjYtMjAuNDE2IDEuMzYxLTM3LjQyOCAzLjQwMjUtMzQuMDI2IDUuNDQ0MyAzLjQwMjYgMi4wNDE0IDIwLjQxNiA0LjA4MyAxNS42NTIgNy40ODU3LTQuNzYzNiAzLjQwMjQtMy40MDI2IDMuNDAyNC0yOC41ODIgNC4wODMtMjUuMTc5IDAuNjgwNTQtNjMuOTY5IDQuMDgzMi00NC45MTQtMC42ODA1NCAxOS4wNTQtNC43NjM2IDY0LjY0OS04LjE2NjIgMzAuNjIzLTguMTY2MnMtODUuMDY1LTMuNDAyNC05MS4xODktNC43NjM2eiIvPiYjeGE7ICAgPHBhdGggZmlsdGVyPSJ1cmwoI2F3KSIgZD0ibTIxOS4zMSAxMDE0LjhjNC4wODMxIDAgNTMuNzYxIDAgNjQuNjQ5LTAuNjgwNjYgMTAuODg4LTAuNjgwNTQgMTguMzc0LTYuODA1IDQwLjE1LTYuODA1czIzLjEzOCAwLjY4MDU0IDQwLjgzMSAzLjQwMjZjMTcuNjk0IDIuNzIxOSAzMS4zMDQgMS4zNjEgMzYuNzQ4IDEuMzYxIDUuNDQ0MSAwIDAtMy40MDI2LTIxLjA5NiAzLjQwMjYtNi4zNzA0IDIuMDU0OS0xMC4yNzYgOC45MTU2LTcuMDA3MSAxNy4xODUgMC45NDIyOSAyLjM4MzQgNC43OTAzIDMuMDU1NSA3LjA0OTEgNS41OTEyIDIuODgwNyAzLjIzMzUgNi4xMDQzIDYuNTcwMSA3LjgxNSA5Ljk1NzMgNy43MDY0IDE1LjI1OC0xMi4yMzggMzMuMjE5LTI3LjU4MiAzMy40MTYtMjYuNDA4IDAuMzQwNDUtNDIuMTE0IDAuNjMxNzEtNjMuNDM4IDAuNzQ3OTItMS40NTMzIDAuMDA4MDU3LTIzLjA1OS0xNS42NC0xNi41NjgtMzAuNzczIDEuNTkzOS0zLjcxNjQgNC44Nzc3LTkuNDk2NSA3LjU1MzgtMTIuNzg0IDEuOTgwMi0yLjQzMiAzLjUxMTQtMi40NTIgNC4zODU0LTQuNzE3NSAyLjc1NDYtNy4xNDAxLTAuMDkwNDI0LTEyLjk4Mi0xLjM1NS0xMy4xOC0yMS43NzctMy40MDI2LTczLjQ5Ni01LjQ0NDItNzIuMTM1LTYuMTI0N3oiLz4mI3hhOyAgPC9nPiYjeGE7ICA8ZyBmaWxsPSIjZjNmMGVkIj4mI3hhOyAgIDxwYXRoIGZpbHRlcj0idXJsKCNhdikiIGQ9Im0zMzcuNzIgODM3LjE1YzE5LjA1NCAwIDUwLjM1OC02LjgwNTEgNjYuMDEtMS4zNjEgMTUuNjUyIDUuNDQ0MiAyMC40MTYtMS4zNjEgMjIuNDU3IDIuNzIyMSAyLjA0MTUgNC4wODMxLTAuNjgwNTEgMTAuODg4LTMuNDAyNiAxMi4yNDlzNC43NjM2IDEzLjYxIDQuMDgzMSAyMi40NTdjLTAuNjgwNTEgOC44NDY2LTMxLjk4NCAxNC4yOTEtNTguNTI0IDEzLjYxLTI2LjU0LTAuNjgwNi0zMS45ODQtMS4zNjExLTE0LjI5MS02LjEyNDYgMTcuNjk0LTQuNzYzNyAxOC4zNzQtOC44NDY3IDE3LjY5NC0xNy4wMTMtMC42ODA1NC04LjE2NjItOC4xNjYzLTguODQ2Ny03LjQ4NTgtMTEuNTY5IDAuNjgwNTQtMi43MjIgOC44NDY3IDAuNjgwNTQgNC4wODMxLTYuMTI0Ni00Ljc2MzYtNi44MDUyLTI5LjI2Mi04Ljg0NjctMzAuNjIzLTguODQ2N3oiLz4mI3hhOyAgIDxwYXRoIGZpbHRlcj0idXJsKCNhdSkiIGQ9Im0zNDcuMjUgODk3LjcxczI5Ljk0My0zLjQwMjYgNDguMzE3IDBjMTguMzc0IDMuNDAyNSA0Mi44NzMgMCAxNC4yOTEgNi44MDUxLTI4LjU4MiA2LjgwNTItNTQuNDQxIDguODQ2Ny03My40OTYgOC4xNjYyLTE5LjA1NC0wLjY4MDQ4LTEyLjI0OS0wLjY4MDQ4IDEwLjIwOC01LjQ0NDIgMjIuNDU3LTQuNzYzNSAxMi45My04LjE2NjIgNS40NDQyLTguMTY2Mi03LjQ4NTcgMC0yLjcyMjEtMC42ODA0OC00Ljc2MzYtMS4zNjA5eiIvPiYjeGE7ICA8L2c+JiN4YTsgIDxwYXRoIGZpbHRlcj0idXJsKCNhdCkiIGZpbGw9IiM1YjVhNTgiIGQ9Im0zNDMuMTYgOTM3LjE4czI2LjU0LTMuNDAyNiA1Mi40IDAuNjgwNTQgNTUuMTIyIDUuNDQ0MSA0Ljc2MzYgOC44NDY3LTgyLjM0MyA2LjEyNDYtODIuMzQzIDYuMTI0NiAyMi40NTcgMCAzOC4xMDktNi44MDUxYzE1LjY1Mi02LjgwNTItMTEuNTY5LTYuODA1Mi0xMi45My04Ljg0Njd6Ii8+JiN4YTsgIDxwYXRoIGZpbHRlcj0idXJsKCNhcykiIGZpbGw9IiNmM2YwZWQiIGQ9Im0zNDcuOTMgOTc5LjM4czIxLjc3Ni0yLjA0MTYgNDcuNjM2LTEuMzYxYzI1Ljg2IDAuNjgwNTQgNzkuNjItMy40MDI4IDM1LjM4NyA0LjA4My00NC4yMzQgNy40ODU3LTY5LjQxMyA4Ljg0NjctODQuMzg0IDEwLjg4OC0xNC45NzEgMi4wNDE2LTguMTY2MiAwLjY4MDQ4IDguODQ2Ny01LjQ0NDIgMTcuMDEzLTYuMTI0OC03LjQ4NTctNi4xMjQ4LTcuNDg1Ny04LjE2NjJ6Ii8+JiN4YTsgIDxnIGZpbGw9IiM5MzhhODUiPiYjeGE7ICAgPHBhdGggZmlsdGVyPSJ1cmwoI2FyKSIgZD0ibTE5Ny43NiA4OTMuNTFzMzIuMTQ2LTAuOTc0MDYgNzQuMDM0IDEuOTQ4MmM0MS44ODcgMi45MjI1IDEwNC4yMyAzLjg5NjUgNDguNzA2IDkuNzQxMy01NS41MjUgNS44NDQ3LTExNy44NyAxMC43MTYtMTE3Ljg3IDEwLjcxNmwtNC44NzA2LTIyLjQwNXoiLz4mI3hhOyAgIDxwYXRoIGZpbHRlcj0idXJsKCNhcSkiIGQ9Im0xOTUuODIgOTM5LjI5YzQuODcwNi0wLjk3NDI0IDM3Ljk5MS00Ljg3MDcgODEuODI3IDAgNDMuODM2IDQuODcwNiA2OS4xNjMgOC43NjcxIDI0LjM1MyAxMC43MTUtNDQuODEgMS45NDgzLTEwMS4zMSA4Ljc2NzItMTAxLjMxIDguNzY3MmwtNC44NzA2LTE5LjQ4MnoiLz4mI3hhOyAgIDxwYXRoIGZpbHRlcj0idXJsKCNhcCkiIGQ9Im0xOTcuNzYgOTc3LjI4czI3LjI3NiA4Ljc2NzIgNjguMTg5IDUuODQ0OGM0MC45MTMtMi45MjI1IDY2LjI0MS0xLjk0ODQgNjEuMzctMC45NzQzLTQuODcwNiAwLjk3NDMtMjMuMzc5IDE0LjYxMi01OS40MjIgMTMuNjM4LTM2LjA0My0wLjk3NDEyLTcwLjEzNyAwLTcwLjEzNyAwdi0xOC41MDh6Ii8+JiN4YTsgIDwvZz4mI3hhOyAgPGcgZmlsbD0iI2YzZjBlZCI+JiN4YTsgICA8cGF0aCBmaWx0ZXI9InVybCgjYW8pIiBkPSJtMzU5LjI2IDkxNS45NWM3LjY1OCAwIDMxLjcyNi02LjU2MzggNTMuNjA2LTQuMzc2IDIxLjg4IDIuMTg4MS0zLjI4MiAxMC45NC0yOC40NDQgMTIuMDM0cy0yNC4wNjgtNi41NjQtMjUuMTYyLTcuNjU4eiIvPiYjeGE7ICAgPHBhdGggZmlsdGVyPSJ1cmwoI2FuKSIgZD0ibTM1NC44OSA5NjAuOGM2LjU2NCAwIDE2LjQxLTIuMTg4IDM4LjI5LTMuMjgyIDIxLjg4LTEuMDkzOSA0MS41NzItMS4wOTM5IDQxLjU3Mi0xLjA5MzlzLTE3LjUwNCA2LjU2NC00MS41NzIgNy42NThjLTI0LjA2OCAxLjA5NDEtMzYuMTAyLTMuMjgyLTM4LjI5LTMuMjgyeiIvPiYjeGE7ICAgPHBhdGggZmlsdGVyPSJ1cmwoI2FtKSIgZD0ibTM1Mi43IDEwMDEuM2M0LjM3NiAwIDIuMTg4LTQuMzc2IDMyLjgyLTUuNDcgMzAuNjMyLTEuMDk0MSA0NS45NDggMi4xODgxIDQ1Ljk0OCAyLjE4ODFzNy42NTggMS4wOTM4LTI3LjM1IDUuNDY5OC01MC4zMjQtMy4yODE5LTUxLjQxOC0yLjE4Nzl6Ii8+JiN4YTsgICA8cGF0aCBmaWx0ZXI9InVybCgjYWwpIiBkPSJtMzcxLjMgMTAyMi4xYzYuNTY0IDAgOS44NDYtMi4xODc5IDI3LjM1LTIuMTg3OXMzLjI4MiA0LjM3NiAzLjI4MiA0LjM3Ni0yLjE4OCAyLjE4NzktMTcuNTA0IDMuMjgyYy0xNS4zMTYgMS4wOTQtMTAuOTQtMy4yODItMTMuMTI4LTUuNDd6Ii8+JiN4YTsgIDwvZz4mI3hhOyAgPHBhdGggc3Ryb2tlLXdpZHRoPSIxMSIgc3Ryb2tlLW9wYWNpdHk9Ii41MzMiIHN0cm9rZT0idXJsKCNiZCkiIGZpbHRlcj0idXJsKCNhaykiIGZpbGw9Im5vbmUiIGQ9Im0yMDEuMjYgMTAzNi4yczkxLjc3NSAyLjUxMjIgMTI5LjYgMi41MTIyYzM3LjgyNCAwIDEzNC41MS03LjI1MzQgMTM0LjUxLTcuMjUzNCIvPiYjeGE7ICA8ZyBmaWxsLW9wYWNpdHk9Ii4yNTciIGZpbGw9IiNlM2RjZDQiPiYjeGE7ICAgPHBhdGggZmlsdGVyPSJ1cmwoI2JpKSIgZD0ibTQ2Ni44NyA4ODMuNThzMS4yMjM4LTQuODM5LTcuNTk3OCAxLjI2ODIgOC4xNDMgMTEuNTM2IDguMTQzIDExLjUzNmwtMC41NDUyLTEyLjgwNHoiLz4mI3hhOyAgIDxwYXRoIGZpbHRlcj0idXJsKCNiaikiIGQ9Im00NjMuNyA5MjQuNTdzLTguNTA0NS0zLjA3NTgtOS4xODMxIDMuNzFjLTAuNjc4NTkgNi43ODU5IDEzLjU3MiAxMS41MzYgMTMuNTcyIDExLjUzNmwtNC4zODg2LTE1LjI0NnoiLz4mI3hhOyAgIDxwYXRoIGZpbHRlcj0idXJsKCNiaykiIGQ9Im00NjEuOTkgOTYzLjU2cy05LjUwMDItMy4zOTI5LTExLjUzNiAzLjM5MjljLTIuMDM1OCA2Ljc4NTkgMTUuMDE4IDExLjMwOCAxNS4wMTggMTEuMzA4bC0zLjQ4MTktMTQuNzAxeiIvPiYjeGE7ICAgPHBhdGggZmlsdGVyPSJ1cmwoI2JsKSIgZD0ibTQ2MC4xMyAxMDAzLjNzLTQuOTMzOC0zLjc1NDMtNi4yOTEgMy4wMzE2Yy0xLjM1NzIgNi43ODU3IDExLjMwOCAxMS41MzYgMTEuMzA4IDExLjUzNmwtNS4wMTY4LTE0LjU2N3oiLz4mI3hhOyAgPC9nPiYjeGE7ICA8cGF0aCBmaWx0ZXI9InVybCgjYWopIiBmaWxsPSIjNWI1YTU4IiBkPSJtMTk5LjUyIDg5MS41czExMC4yMi00LjA1MiAxNDAuMi02LjQ4MzNjMjkuOTg1LTIuNDMxMiAxMTkuOTQtMC44MTA0MiAxMTkuOTQtMC44MTA0MnMtNzYuMTc4IDEzLjc3Ny0xMTUuODkgMTMuNzc3Yy0zOS43MSAwLTE0NC4yNS01LjY3MjgtMTQ0LjI1LTYuNDgzMnoiLz4mI3hhOyAgPGcgZmlsbD0iIzY0NjI1YyI+JiN4YTsgICA8cGF0aCBmaWx0ZXI9InVybCgjYWkpIiBkPSJtMjAxLjk1IDkzNi4wOHMxMDcuNzgtOC45MTQ1IDE0MC4yLTguOTE0NWMzMi40MTYgMCAxMjMuMTgtMS42MjA4IDExNy41MS0wLjgxMDM2LTUuNjcyOSAwLjgxMDM2LTMyLjQxNiA5LjcyNDgtODQuMjgyIDExLjM0Ni01MS44NjYgMS42MjA4LTE3NS4wNSAwLjgxMDQ5LTE3My40My0xLjYyMDh6Ii8+JiN4YTsgICA8cGF0aCBmaWx0ZXI9InVybCgjYm8pIiBkPSJtMjA3LjYyIDk3NS43OXM4NS45MDMtNS42NzI4IDEyMS41Ni02LjQ4MzJjMzUuNjU4LTAuODEwNDIgMTI3LjIzLTQuMDUyMSAxMjcuMjMtNC4wNTIxcy0xMi45NjYgOC45MTQ2LTU5Ljk3IDEwLjUzNWMtNDcuMDA0IDEuNjIwOC0xOTEuMjYgMy4yNDE2LTE4OC44MiAweiIvPiYjeGE7ICAgPHBhdGggZmlsdGVyPSJ1cmwoI2JuKSIgZD0ibTIwNS4xOSAxMDE3LjlzOTcuMjQ5LTUuNjcyNyAxMzIuMS04LjkxNDRjMzQuODQ4LTMuMjQxNiAxMjAuNzUtNC44NjI1IDEyMC43NS00Ljg2MjVzLTguOTE0NSAyLjQzMTMtNTcuNTM5IDguOTE0NmMtNDguNjI0IDYuNDgzMi0xOTcuNzQgNi40ODMyLTE5NS4zMSA0Ljg2MjN6Ii8+JiN4YTsgIDwvZz4mI3hhOyAgPHBhdGggc3Ryb2tlLXdpZHRoPSI2IiBzdHJva2U9IiM0YjRiNDgiIGZpbHRlcj0idXJsKCNibSkiIGZpbGw9Im5vbmUiIGQ9Im0xOTYuMjYgODQzLjc1czg3LjUyLTMuMjgxOSAxMjUuODEtMi4xODc5YzM4LjI5IDEuMDkzOSAxNDcuNjkgMy4yODE5IDE0Ny42OSAzLjI4MTkiLz4mI3hhOyAgPHBhdGggZmlsbD0iIzk2OTQ4ZiIgZD0ibTMxMS45NCA0NjguNTdjLTAuNzcwNjkgMC4wMDc3NTEgMC41MDE3MSA4OS41NDktMC4zMTAzIDg5LjU5OCAwLjAwMjU2MyAxLjczOTYgMC4wMjIwOTUgNi4yNTc0IDAuMDIyODg4IDcuMjg3NCAwLjAwOTc2NiAxMi45MDYtMjYuOTY2IDE5LjAzNS0zMS40NTcgMTcuNDc2LTEwLjI5OS0zLjU3NTctMTAuNjc5IDExLjM3OS0xMS4xNDggMjMuNjktMC42NTU0NiAxNy4yMTkgOC43Mjc4IDU3LjI1OSA2LjQ2NSA2NC4xNDctMC4xMzM0MiAwLjQwNjE5LTAuMjQwMjMgMC43MzExNC0wLjM2NTU0IDEuMDk2NiAyLjU5MDEtMS43MDYyIDUuMTE5My00LjM2MTcgNy4yNDE3LTguNDI5NiA4LjI2MjItMTUuODM2IDEwLjMzOC0xMy4wNyAyLjc2NDItMzIuMzQ4LTcuNTczNi0xOS4yNzgtMTQuNDU4LTM0LjQzIDQuODIwMi0zOC41NjIgMTkuMjc4LTQuMTMxIDIxLjMzOS0xMi40MDEgNDAuNjE4LTguMjY5NyAxOS4yNzggNC4xMzExIDQxLjk4OSAyLjA4NTEgNDYuODA4IDI1LjQ5NCA0LjgxOTYgMjMuNDA5LTIuNzQwMSAzOC41NDMgNC4xNDUgNTAuOTM2IDIuNTE2IDQuNTI4NiA4LjA0MjIgNS4xNjcyIDEwLjg0MSA4LjY0MjItMC44OTk5LTQuOTUzNi0xLjc1ODItOS40NTEzLTIuMTAxNy0xMy41Ny0xLjY5NDUtMjAuMzE3IDcuOTk3Ny02NS4wODEgMi42OTU3LTcyLjM3MS01LjMwMjEtNy4yOTA0LTEzLjIzNiAxLjY5NDctMzAuNDc0LTQuNTkxOC05LjMzOTctMy40MDU5LTkuNjk2OS02LjE0NTYtOS4zMjA2LTEyLjUxOS0xLjE4MjEtMC4yMTQ4NCAxLjMxNzgtMTAzLjMtNC4wMDEtMTAzLjE4LTEzLjEyOCAwLjI5NjA4LTcuNDcyMiAxMDIuNi0xNy41MDcgMTAwLjkyLTcuMTQ3OC0xLjE5ODktMTQuNzA0LTk1LjQ5NC0xOS43MzYtOTUuNDQzeiIvPiYjeGE7ICA8cGF0aCBmaWxsPSJ1cmwoI2JjKSIgZD0ibTMyNy4zOSA2MDkuNzNjLTIzLjQxNCAwLjU3MzE4LTE2LjEwNSAzOS45MTYtMTguMTM5IDY0LjA1Ny0xLjc3MjggMjEuMDQ5IDAuNTAzNDggMTIyLjY4IDEuNjIyIDE1Mi44NCAxMi40NTMgMC41NjA2NyAyNi41MDQgMC41MzE4NiAzOS42MTIgMC0wLjE0MzY4LTI3LjQ2Ni0wLjcwMTYtMTMxLjEyLTEuMzAyMS0xNTAuMTMtMC42ODg1NC0yMS43OTkgNC4xMzUtNjYuMDY2LTIwLjY1MS02Ni43NDctMC4zODczMy0wLjAxMDYyLTAuNzcwNTctMC4wMzE2NzctMS4xNDIyLTAuMDIyNTgzeiIvPiYjeGE7ICA8cGF0aCBmaWxsPSJ1cmwoI2JiKSIgZD0ibTMyMi42NCA2MjcuMjNjLTMuMjA4NSAwLjEwNzI0LTUuOTYzMyAxLjQ2OTMtOC41NjY2IDQuNTQ2MS03LjU3MzYgOC45NTA2LTkuNjU0MyAxMy4wOC0xNi41MzkgMTUuMTQ2LTYuODg1MSAyLjA2NTYtNi44ODEyIDguOTQ2OC0yMC42NTEgMjAuNjUxLTAuMzU5OTggMC4zMDU5Ny0wLjcwNDkgMC42MjcyNi0xLjA1MDggMC45MzY2NS0wLjAyMjE1NiAwLjQ3NjUtMC4wNTgyODkgMC45MDAwMi0wLjExNDI2IDEuMjc5My0wLjAyNTMzIDAuMTcxNjMtMC4wNTg2NTUgMC4zMjkxLTAuMDkxMzcgMC40Nzk3NC0wLjAzNzEwOSAwLjE4MDcyLTAuMDY1NDkxIDAuMzU0MjUtMC4xMTQyIDAuNTAyNTYtMC40Mjc5OCAxLjMwMjctMC43OTUzNSAyLjMzNTEtMS4xNDIyIDMuMjY2OC0wLjA5NTIxNSAwLjI1NTc0LTAuMjA3NDYgMC41NDIxOC0wLjI5NyAwLjc3NjY3LTAuNDY3NDcgMS4yMzQxLTAuODYzMzQgMi4yMjU2LTEuMTg3OSAzLjEyOTctMC4xNTMyNiAwLjQyNjgyLTAuMjg1MzQgMC44MzQ0MS0wLjQxMTE5IDEuMjU2NS0wLjEyNTg1IDAuNDIyMDYtMC4yNDEzMyAwLjg2MzU5LTAuMzQyNjUgMS4zMjUtMC4xMDEzMiAwLjQ2MTQzLTAuMTk0NTIgMC45NjI5NS0wLjI3NDE3IDEuNTA3OC0wLjA3OTU5IDAuNTQ0ODYtMC4xNDQ3OCAxLjEzMjMtMC4yMDU1NyAxLjgwNDggMC42ODEyMS0wLjQ5ODcyIDAuNDE2MzIgMi42MjktMC4zNDI2NSA4LjIwMTItMC4wODIwOTIgNS4yOTA1LTAuMDkxMzcgMTIuODQ5LTAuMDkxNDMxIDI0LjM3NSAwIDEzLjkxOC0yLjEzNTQgNzYuNDg3IDMuMDg0IDEwNS4xMSAwLjA1MzcxMSAwLjI5NDU2IDAuMTg1MTIgMC41NjgxMiAwLjM4ODM3IDAuODQ1MjIgMy4wMTY2IDEuODM5MiA2LjY5NzMgMi40NDQ4IDExLjE0OCAxLjUwNzggMTEuNzY2LTIuNDc3NS0xMy4wNzQtMTgyLjQ2IDMzLjA1Ni0xNTIuODUgMjAuODkyIDEzLjQwOCAyMS4yNzMtNS40MTMgMzMuNzE4LTYuMTkwOSAzMy4wNDktMi4wNjU2IDI3LjU1NyAxMjMuMjMgMzEgMTU2Ljk2IDAuMDUzMTYyIDAuNTIxIDAuNDIxODEgMi4wNTkyIDAuOTgyMzYgMy45NzUgNS45NzY1LTEuMDk1OCAxMC4xNjctMi40MjYyIDExLjU4Mi0zLjk3NSAwLjAzOTM2OC0wLjY2NDU1IDAuMDc5ODM0LTEuMjk5OCAwLjExNDItMi4wMTAyIDAuMDYyMzE3LTEuMjg5MSAwLjE1NTY0LTIuNjgxMyAwLjI3NDE3LTQuMTM0OC0wLjU3MzI0LTIzLjM1Ny0wLjk5MjYyLTExMy40My0xLjU5OTEtMTI2LjE3LTAuMjczNjgtNS43NDcyLTEuMDA0My0xMC45MjctMS44MDQ4LTE1LjY5NC0wLjM5NzM0LTIuMzY2NC0wLjc5MzI3LTQuNjQzNi0xLjE4NzktNi44MDc3LTAuMDM4MzMtMC4wMzMzODYtMC4wNzU3NDUtMC4wNTc5MjItMC4xMTQyLTAuMDkxMzctMjEuMzQ0LTE4LjU5LTkuNjM5LTE1LjgyNi0yNC43ODYtMjIuMDIyLTE1LjE0Ny02LjE5NjYtMi4wNjggMS4zNjYzLTE5LjI4MS03LjU4NDQtMTEuMjk2LTUuODczOC0xOS4wMjYtMTAuMjU2LTI1LjE1Mi0xMC4wNTJ6Ii8+JiN4YTsgIDxwYXRoIHN0cm9rZS13aWR0aD0iLjczMSIgc3Ryb2tlPSIjMDAwIiBmaWxsPSIjMmMyZTJkIiBkPSJtMzUxLjcgNDQ3Ljk5Yy0xMi42NDMtMC4wNDI5NjktMzkuMzE3IDIuNjgxNi00OS43NTUgMi4xMDE3LTExLjkzLTAuNjYyNzItMTYuNzg3IDcuMTkzNS02LjU1NjQgMTQuMDcyIDAuMTQwNTYgMC4wOTQ0ODIgMC4yOTEyIDAuMTg1MTggMC40MzQwOCAwLjI3NDExIDQuNjgxOSAxLjI1MyA5LjM0NDcgMi4xODUgMTMuNzUyIDIuNTgxNCAxLjE1MjYtMC4xMTEyMSAxLjg5NjEtMC4yMjg0NiAxLjg5NjEtMC4yMjg0NnYwLjM2NTU0YzAuNDA1NzYgMC4wMjIyMTcgMC44MTAzNiAwLjA1NjM5NiAxLjIxMDggMC4wNjg1NDIgMTguMjg2IDAuNTU0MDggMjMuNjY0IDUuMTA2MyAzOS43NzIgMS40ODQ5IDAuMDkwMTQ5LTAuNjIyOTkgMC4xNzc5Mi0xLjA4ODQgMC4yOTctMS4zMDIxIDQuNTY1OS04LjE5NDQgMTUuODM2LTEuMjE1IDIxLjcwMi0xMC40ODYgMy4zODA0LTUuMzQyMy04LjI1MzctNy41MjE3LTE4LjI3Ni04LjcyNjYtMS4xNDU3LTAuMTM3NzYtMi42NzE0LTAuMTk5NDYtNC40Nzc1LTAuMjA1NjN6Ii8+JiN4YTsgIDxwYXRoIHN0cm9rZS13aWR0aD0iLjcyNyIgc3Ryb2tlPSIjODA4MDgwIiBmaWxsPSJ1cmwoI2JmKSIgZD0ibTI3NC4zIDgyMi42NGMwLTI4Ljc0LTMuMDc5Ni05NS43My0zLjA3OTYtMTA5LjQ4IDAtNDEuNTI3LTAuMDcyMDIxLTMxLjk3NSA0LjI5MTUtNDUuMDk3IDIuMjYyOS02LjgwNDktNy4xMjk1LTQ2LjM0Ni02LjQ3NC02My4zNTcgMC40Njg2OS0xMi4xNjIgMC44NTQtMjYuOTQ0IDExLjE1NC0yMy40MTEgNC40OTA2IDEuNTQwMSAzMS40NjktNC41MTE2IDMxLjQ1OS0xNy4yNjEtMC4wMTA1NTktMTMuNzc2LTAuMTk0MTUtOTcuNDc2LTAuMTk0MTUtOTcuNDc2cy05LjQwNjUgMS44NDUtMTYuMDY4LTIuNTc5MmMtMTAuMjMxLTYuNzk1My01LjM3NTgtMTQuNTU2IDYuNTU0NC0xMy45MDEgMTEuOTMgMC42NTQ3MiA0NS4wNTUtMi45ODAyIDU0LjIyMS0xLjg5MTYgMTAuMDIyIDEuMTkwMyAyMS42NzggMy4zNDYzIDE4LjI5NyA4LjYyMzgtNS44NjYzIDkuMTU4My0xNy4xNTIgMi4yNjgzLTIxLjcxOCAxMC4zNjMtMi4xNjQxIDMuODM2NyAwLjY2NTM0IDc4LjExMiAwLjc0MzE2IDg5Ljk2OSAwLjA4MDQ0NCAxMi4yNDgtMy40NjQ1IDE1LjU3MyA5LjAwNDUgMjAuMDY1IDE3LjIzOSA2LjIxMDMgMjUuMTkzLTIuNjUxOCAzMC40OTUgNC41NTAyIDUuMzAyMyA3LjIwMi00LjM5MjggNTEuNDItMi42OTgyIDcxLjQ5MiAwLjc1NTMxIDguOTQ2NSA0LjAxNjkgMTkuNTQ5IDQuNjc5NyAzMy4yOTggMC42NjI3OCAxMy43NDkgMS43NTQgMTI3LjYyIDEuNzU0IDEzNS4xMSAwIDcuNDgyMi0xMjIuNDIgMy45NTM2LTEyMi40MiAwLjk4NDk4eiIvPiYjeGE7ICA8cGF0aCBmaWxsPSIjOTY5NDhmIiBkPSJtMzExLjk0IDQ2OC41N2MtMC43NzA2OSAwLjAwNzc1MSAwLjUwMTcxIDg5LjU0OS0wLjMxMDMgODkuNTk4IDAuMDAyNTYzIDEuNzM5NiAwLjAyMjA5NSA2LjI1NzQgMC4wMjI4ODggNy4yODc0IDAuMDA5NzY2IDEyLjkwNi0yNi45NjYgMTkuMDM1LTMxLjQ1NyAxNy40NzYtMTAuMjk5LTMuNTc1Ny0xMC42NzkgMTEuMzc5LTExLjE0OCAyMy42OS0wLjY1NTQ2IDE3LjIxOSA4LjcyNzggNTcuMjU5IDYuNDY1IDY0LjE0Ny0wLjEzMzQyIDAuNDA2MTktMC4yNDAyMyAwLjczMTE0LTAuMzY1NTQgMS4wOTY2IDIuNTkwMS0xLjcwNjIgNS4xMTkzLTQuMzYxNyA3LjI0MTctOC40Mjk2IDguMjYyMi0xNS44MzYgMTAuMzM4LTEzLjA3IDIuNzY0Mi0zMi4zNDgtNy41NzM2LTE5LjI3OC0xNC40NTgtMzQuNDMgNC44MjAyLTM4LjU2MiAxOS4yNzgtNC4xMzEgMjEuMzM5LTEyLjQwMSA0MC42MTgtOC4yNjk3IDE5LjI3OCA0LjEzMTEgNDEuOTg5IDIuMDg1MSA0Ni44MDggMjUuNDk0IDQuODE5NiAyMy40MDktMi43NDAxIDM4LjU0MyA0LjE0NSA1MC45MzYgMi41MTYgNC41Mjg2IDguMDQyMiA1LjE2NzIgMTAuODQxIDguNjQyMi0wLjg5OTktNC45NTM2LTEuNzU4Mi05LjQ1MTMtMi4xMDE3LTEzLjU3LTEuNjk0NS0yMC4zMTcgNy45OTc3LTY1LjA4MSAyLjY5NTctNzIuMzcxLTUuMzAyMS03LjI5MDQtMTMuMjM2IDEuNjk0Ny0zMC40NzQtNC41OTE4LTkuMzM5Ny0zLjQwNTktOS42OTY5LTYuMTQ1Ni05LjMyMDYtMTIuNTE5LTEuMTgyMS0wLjIxNDg0IDEuMzE3OC0xMDMuMy00LjAwMS0xMDMuMTgtMTMuMTI4IDAuMjk2MDgtNy40NzIyIDEwMi42LTE3LjUwNyAxMDAuOTItNy4xNDc4LTEuMTk4OS0xNC43MDQtOTUuNDk0LTE5LjczNi05NS40NDN6Ii8+JiN4YTsgIDxnIGZpbGw9Im5vbmUiPiYjeGE7ICAgPGcgc3Ryb2tlLXdpZHRoPSI3LjMxIiBzdHJva2UtbGluZWNhcD0icm91bmQiIHN0cm9rZT0iIzMzMyI+JiN4YTsgICAgPHBhdGggZD0ibTI3Ny4zOSA2NzIuNTNzNC40NzA2LTM5LjQ5IDUuNTg4Mi01MS43ODRjMS4xMTc3LTEyLjI5NCAwLTE5LjM3MyAwLTI5LjA1OSAwLTkuNjg2MyA0LjQ3MDYtNC44NDMxIDAuMzcyNTYtMjAuODYzcy0zMy41MjktOTIuNzY1LTQwLjYwOC0xMDYuOTJjLTcuMDc4NC0xNC4xNTctMzMuOTAyLTc3Ljg2My00MC4yMzUtOTIuMDItNi4zMzMzLTE0LjE1Ny0xOC4yNTUtMzkuNDktMTguMjU1LTM5LjQ5Ii8+JiN4YTsgICAgPHBhdGggZD0ibTM4NS4wNiA2NTcuMjVjMC0zLjcyNTUgMC00MC45OC0xLjQ5MDItNDcuMzE0LTEuNDkwMi02LjMzMzMtNi4zMzMzLTEwLjgwNC02LjMzMzMtMTAuODA0czQuNDcwNi0xNC41MjkgNC4wOTgtMTcuMTM3Yy0wLjM3MjU2LTIuNjA3OC0zLjM1MjktOS4zMTM4LTAuMzcyNTYtMjEuOTggMi45ODA0LTEyLjY2NyAyNC41ODgtNjUuMTk2IDMxLjI5NC04MC40NzEgNi43MDU5LTE1LjI3NCAyNi4wNzgtNzYuMzczIDMzLjUzLTkyLjM5MiA3LjQ1MDktMTYuMDIgMjAuNDktNTMuMjc0IDIwLjQ5LTUzLjI3NCIvPiYjeGE7ICAgPC9nPiYjeGE7ICAgPGcgc3Ryb2tlPSIjMDAwIj4mI3hhOyAgICA8ZyBzdHJva2Utd2lkdGg9Ii43MzEiPiYjeGE7ICAgICA8cGF0aCBkPSJtMzU4LjcxIDQ1MC43NXM3Ljg1MzctMjguNDcgMTMuMjUzLTQ5LjU3N2M1LjM5OTQtMjEuMTA3IDIyLjU4LTYxLjg0OCAyMS41OTgtNzEuMTc0LTAuOTgxNjktOS4zMjYzLTguODM1NC0xNC43MjYtMTAuNzk5LTMuOTI2OS0xLjk2MzQgMTAuNzk5IDExLjI5IDE4LjE2MiAxMS43ODEgNC40MTc3IDAuNDkwODQtMTMuNzQ0IDAtMzMuMzc4IDAtMzMuMzc4Ii8+JiN4YTsgICAgIDxwYXRoIGQ9Im0zMDguMTUgNDU2LjY0Yy0wLjk4MTY5LTIuNDU0NC03Ljg1MzctMjIuMDg5LTExLjI5LTQyLjcwNS0zLjQzNi0yMC42MTYtMTEuMjktNDMuMTk2LTE2LjY4OS01NS45NTgtNS4zOTk1LTEyLjc2Mi03LjM2MjktMTguMTYyLTExLjI5LTI5Ljk0Mi0zLjkyNjktMTEuNzgxIDEuOTYzNC0xNS4yMTcgNi44NzItMy40MzZzLTEuNDcyNiAyMi41OC02Ljg3MiA5LjMyNjRjLTUuMzk5NS0xMy4yNTMtMTAuMzA4LTI5Ljk0Mi0xMC4zMDgtMjkuOTQyIi8+JiN4YTsgICAgIDxwYXRoIGQ9Im0xODQuNDUgMzMzLjQzczEwLjc5OS03Ljg1MzcgMjguOTYxLTguODM1NGMxOC4xNjItMC45ODE2OSAyMC4xMjUtMC45ODE2OSAzOC4yODctMC40OTA4NCAxOC4xNjIgMC40OTA4NCAxMS43ODEgMS40NzI2IDMwLjQzMyAwIDE4LjY1My0xLjQ3MjUgMjguNDctMi45NDUxIDUzLjAxMyAxLjQ3MjZzMjYuNTA2IDExLjc4MSA0NS4xNTkgOS4zMjYzYzE4LjY1My0yLjQ1NDMgMjAuNjE2LTUuODkwMyA0MC4yNS02Ljg3MiAxOS42MzQtMC45ODE2OSA0MC4yNSAyLjQ1NDMgNDMuNjg2IDQuNDE3N3MzLjkyNjkgMi45NDUxIDMuOTI2OSAyLjk0NTEiLz4mI3hhOyAgICA8L2c+JiN4YTsgICAgPHBhdGggc3Ryb2tlLXdpZHRoPSIuMzEiIGQ9Im0xODYuMTEgMzM1Ljg3cy0zLjIwOTktNC45NjgzLTEuNTM3My0zLjQ4MjRjMS42NzI2IDEuNDg2IDIuMzc0NSAyLjkzOTUgMi4zNzQ1IDIuOTM5NW0wLjEzODEtMC4wODQ4cy0zLjA4LTUuMDE4OS0xLjQwNzQtMy41MzMgMi4yNzUgMy4wMDI4IDIuMjc1IDMuMDAyOG0wLjE0MTQtMC4wNzkycy0yLjg3Ny01LjEzODYtMS4yNjUtMy41ODY4IDIuMTc5IDMuMDc4OCAyLjE3OSAzLjA3ODhtMC4xNDM4LTAuMDc0OXMtMi43MjAzLTUuMjIzMi0xLjE1Ni0zLjYyMzQgMi4xNjI0IDMuMDk5MiAyLjE2MjQgMy4wOTkybTAuMDYxNS0wLjAyOTJzLTIuNTUyMi01LjMwNzMtMS4wMzk3LTMuNjU4NGMxLjUxMjQgMS42NDg5IDIuMDYyNCAzLjE2NjYgMi4wNjI0IDMuMTY2Nm0wLjE0NjEtMC4wNzAzcy0yLjQ2NjEtNS4zNTc1LTEuMDEtMy42NTg2YzEuNDU2IDEuNjk4OSAxLjk1NDYgMy4yMzQyIDEuOTU0NiAzLjIzNDJtMC4xNDg0LTAuMDY1MnMtMi4zNzItNS4zOTAzLTAuOTE1OTgtMy42OTE0YzEuNDU2MSAxLjY5ODkgMS44NjE0IDMuMjgyMSAxLjg2MTQgMy4yODIxbTAuMTUwNi0wLjA2cy0yLjE3OTMtNS40NzEtMC43ODQ0NS0zLjcyMTVjMS4zOTQ5IDEuNzQ5NSAxLjgzODYgMy4zMDE2IDEuODM4NiAzLjMwMTZtMC4xNTA2LTAuMDZzLTIuMDgyMi01LjUyNDgtMC43NTM1NC0zLjcyNDVjMS4zMjg2IDEuODAwMyAxLjcxNDEgMy4zNjc5IDEuNzE0MSAzLjM2NzltMC4xNTI3LTAuMDU0M3MtMS45NzM2LTUuNTQ4NS0wLjY0NDk5LTMuNzQ4MmMxLjMyODYgMS44MDA0IDEuNzE0MSAzLjM2NzkgMS43MTQxIDMuMzY3OW0wLjE1MjctMC4wNTQzcy0xLjg2NTktNS41OTA1LTAuNjA4OTItMy43Mzk1IDEuNTgwNyAzLjQzMjQgMS41ODA3IDMuNDMyNG0wLjE1NDgtMC4wNDgzcy0xLjc1NDUtNS42MjE1LTAuNDk3NTMtMy43NzA1IDEuNTgwOCAzLjQzMjQgMS41ODA4IDMuNDMyNG0wLjE1NDctMC4wNDgzcy0xLjYzODctNS42NTcxLTAuNDU4OTItMy43NTYgMS40MzgzIDMuNDk0NSAxLjQzODMgMy40OTQ1bTAuMTU2Ni0wLjA0MTlzLTEuNTIxOC01LjY4ODktMC4zNDIwNC0zLjc4NzggMS40MzgyIDMuNDk0NSAxLjQzODIgMy40OTQ1bTAuMTU2Ni0wLjA0MTlzLTEuNDAwMS01LjcyNDEtMC4zMDMxNi0zLjc3NGMxLjA5NyAxLjk1MDEgMS4yODY2IDMuNTUzMSAxLjI4NjYgMy41NTMxbTAuMTU4Mi0wLjAzNTFzLTEuMjc1OC01Ljc0OS0wLjE3ODgzLTMuNzk5YzEuMDk2OSAxLjk1MDEgMS4yODY2IDMuNTUzMSAxLjI4NjYgMy41NTMxbTAuMTU4My0wLjAzNTFzLTEuMTQ5NC01Ljc5MDktMC4xNDEwOC0zLjc5MzZjMS4wMDg0IDEuOTk3MyAxLjEyNiAzLjYwNzIgMS4xMjYgMy42MDcybTAuMTU5Ny0wLjAyOHMtMS4wMTY2LTUuODAwNC0wLjAwODI0LTMuODAzMSAxLjEyNiAzLjYwNzIgMS4xMjYgMy42MDcybTAuMTU5Ny0wLjAyOHMtMS4wMTY2LTUuODAwNC0wLjAwODI3LTMuODAzMWMxLjAwODQgMS45OTczIDAuOTkyNjIgMy42NDQzIDAuOTkyNjIgMy42NDQzbTAuMTYwOC0wLjAyMDVzLTAuNzQ0OTMtNS44NDE1IDAuMTY5MTYtMy43OTkzYzAuOTE0MDYgMi4wNDIxIDAuOTU2NDIgMy42NTU4IDAuOTU2NDIgMy42NTU4bTAuMTYwOC0wLjAyMDZzLTAuNzQ0OTMtNS44NDE1IDAuMTY5MTMtMy43OTkzYzAuOTE0MDkgMi4wNDIyIDAuOTU2NDUgMy42NTU4IDAuOTU2NDUgMy42NTU4bTAuMTYwOC0wLjAyMDVzLTAuNjAzNjEtNS44NTg2IDAuMjEwNzItMy43NzQ3IDAuNzc4NjYgMy42OTc4IDAuNzc4NjYgMy42OTc4bTAuMTYxNi0wLjAxMjdzLTAuNDYxNzktNS44NzA3IDAuMzUyNTQtMy43ODY3YzAuODE0MzMgMi4wODM5IDAuNzc4NjYgMy42OTc4IDAuNzc4NjYgMy42OTc4bTAuMTYxNi0wLjAxMjhzLTAuNDYxNzYtNS44NzA2IDAuMzUyNTQtMy43ODY3YzAuODE0MzMgMi4wODM5IDAuNjk2OTMgMy43MTMxIDAuNjk2OTMgMy43MTMxbTAuMTYxOS0wLjAwODJzLTAuMjk2OTQtNS44ODE4IDAuNDU4NjgtMy43NzU3IDAuNjc0NzEgMy43MTg1IDAuNjc0NzEgMy43MTg1bTAuMTYxOS0wLjAwODJzLTAuMjk2OTQtNS44ODE5IDAuNDU4NjgtMy43NzU3YzAuNzU1NjIgMi4xMDYxIDAuNjc0NjggMy43MTg0IDAuNjc0NjggMy43MTg0bTAuMTYxOS0wLjAwODJzLTAuMjk2OTQtNS44ODE4IDAuNDU4NjgtMy43NzU3YzAuNzU1NjIgMi4xMDYyIDAuNjc0NjggMy43MTg1IDAuNjc0NjggMy43MTg1bTAuMTYxOS0wLjAwODJzLTAuMjk2OTQtNS44ODE4IDAuNDU4NzEtMy43NzU3YzAuNzU1NjIgMi4xMDYxIDAuNjc0NjggMy43MTg0IDAuNjc0NjggMy43MTg0bTAuMTYxOS0wLjAwODJzLTAuMjk2OTctNS44ODE4IDAuNDU4NjUtMy43NzU2YzAuNzU1NjIgMi4xMDYxIDAuNjc0NjggMy43MTg0IDAuNjc0NjggMy43MTg0bTAuMTYxOS0wLjAwODJzLTAuMjk2OTQtNS44ODE4IDAuNDU4NjgtMy43NzU3YzAuNzU1NjIgMi4xMDYyIDAuNjc0NjggMy43MTg1IDAuNjc0NjggMy43MTg1bTAuMTYxOS0wLjAwODJzLTAuMjk2OTQtNS44ODE4IDAuNDU4NjgtMy43NzU3IDAuNjc0NjggMy43MTg0IDAuNjc0NjggMy43MTg0bTAuMTYxOS0wLjAwODJzLTAuMjk2OTQtNS44ODE4IDAuNDU4NjgtMy43NzU2YzAuNzU1NjUgMi4xMDYxIDAuNjc0NzEgMy43MTg0IDAuNjc0NzEgMy43MTg0bTAuMTYxOS0wLjAwODJzLTAuMjM1NTQtNS44ODg4IDAuNDc1ODMtMy43NjczYzAuNzExMzMgMi4xMjE0IDAuNTk2NzEgMy43MzE2IDAuNTk2NzEgMy43MzE2bTAuMTYyLTAuMDA0OHMtMC4xNzM4LTUuODg2NiAwLjUzNzU0LTMuNzY1MWMwLjcxMTM2IDIuMTIxNCAwLjU5Njc0IDMuNzMxNiAwLjU5Njc0IDMuNzMxNm0wLjE2Mi0wLjAwNDhzLTAuMTczNzctNS44ODY2IDAuNTM3NTctMy43NjUxYzAuNzExMzYgMi4xMjE0IDAuNTk2NzEgMy43MzE2IDAuNTk2NzEgMy43MzE2bTAuMTYyLTAuMDA0OHMtMC4xNzM4LTUuODg2NiAwLjUzNzU3LTMuNzY1MWMwLjcxMTM2IDIuMTIxNCAwLjU5NjcxIDMuNzMxNiAwLjU5NjcxIDMuNzMxNm0wLjE2Mi0wLjAwNDhzLTAuMTczOC01Ljg4NjUgMC41Mzc1Ny0zLjc2NTFjMC43MTEzNiAyLjEyMTQgMC41OTY3MSAzLjczMTYgMC41OTY3MSAzLjczMTZtMC4xNjItMC4wMDQ4cy0wLjE3MzgtNS44ODY1IDAuNTM3NTctMy43NjUxYzAuNzExMzMgMi4xMjE0IDAuNTk2NzEgMy43MzE2IDAuNTk2NzEgMy43MzE2bTAuMTYyLTAuMDA0OHMtMC4wNzMwOS01LjkwNDcgMC41NjUxMi0zLjc2MDJjMC42MzgyNCAyLjE0NDYgMC40Njg1MSAzLjc0OTkgMC40Njg1MSAzLjc0OTltMC4xNjIxIDdlLTRzMC4wMjgwMTUtNS44ODkgMC42NjYyNi0zLjc0NDRjMC42MzgyNCAyLjE0NDUgMC40Njg0OCAzLjc0OTkgMC40Njg0OCAzLjc0OTltMC4xNjIxIDhlLTRzMC4wMjgwNzYtNS44ODkxIDAuNjY2MjktMy43NDQ1YzAuNjM4MjQgMi4xNDQ1IDAuNDY4NTEgMy43NDk5IDAuNDY4NTEgMy43NDk5bTAuMTYyMSA4ZS00czAuMDI4MDQ2LTUuODg5MSAwLjY2NjI5LTMuNzQ0NSAwLjQ2ODQ4IDMuNzQ5OSAwLjQ2ODQ4IDMuNzQ5OW0wLjE2MjEgOGUtNHMwLjAyODA0Ni01Ljg4OSAwLjY2NjI5LTMuNzQ0NWMwLjYzODI0IDIuMTQ0NiAwLjQ2ODQ4IDMuNzQ5OSAwLjQ2ODQ4IDMuNzQ5OW0wLjE2MjEgN2UtNHMwLjAyODA0Ni01Ljg4OSAwLjY2NjI5LTMuNzQ0NWMwLjYzODI0IDIuMTQ0NiAwLjQ2ODQ4IDMuNzQ5OSAwLjQ2ODQ4IDMuNzQ5OW0wLjE2MjEgN2UtNHMwLjAyODA0Ni01Ljg4OSAwLjY2NjI2LTMuNzQ0NGMwLjYzODI0IDIuMTQ0NSAwLjQxMTE5IDMuNzU2MyAwLjQxMTE5IDMuNzU2M20wLjE2MiA0ZS0zczAuMTQyNTItNS44ODc2IDAuNzM4OTUtMy43MzFjMC41OTY1IDIuMTU2NyAwLjM5NTU3IDMuNzU4NSAwLjM5NTU3IDMuNzU4NW0wLjE2MiAwLjAwMzlzMC4xNDI1Mi01Ljg4NzYgMC43Mzg5NS0zLjczMWMwLjU5NjQ0IDIuMTU2NiAwLjM5NTUxIDMuNzU4NCAwLjM5NTUxIDMuNzU4NG0wLjE2MjEgMC4wMDM5czAuMTQyNDYtNS44ODc2IDAuNzM4OTUtMy43MzFjMC41OTY0NCAyLjE1NjYgMC4zOTU1MSAzLjc1ODQgMC4zOTU1MSAzLjc1ODRtMC4xNjIgMC4wMDM5czAuMTQyNTItNS44ODc2IDAuNzM4OTUtMy43MzFjMC41OTY1IDIuMTU2NyAwLjM5NTU3IDMuNzU4NCAwLjM5NTU3IDMuNzU4NG0wLjE2MiAwLjAwMzlzMC4xNDI1Mi01Ljg4NzYgMC43Mzg5NS0zLjczMWMwLjU5NjQ0IDIuMTU2NyAwLjM5NTUxIDMuNzU4NCAwLjM5NTUxIDMuNzU4NG0wLjE2MjEgNGUtM3MwLjE0MjUyLTUuODg3NiAwLjczODk1LTMuNzMxYzAuNTk2NDQgMi4xNTY3IDAuMzk1NTEgMy43NTg1IDAuMzk1NTEgMy43NTg1bTAuMTYyIDAuMDAzOXMwLjE0MjUyLTUuODg3NiAwLjczOTAxLTMuNzMxYzAuNTk2NDQgMi4xNTY2IDAuMzk1NTEgMy43NTg0IDAuMzk1NTEgMy43NTg0bTAuMTYyIDAuMDAzOXMwLjE0MjUyLTUuODg3NiAwLjczODk1LTMuNzMxYzAuNTk2NSAyLjE1NjYgMC4zOTU1MSAzLjc1ODQgMC4zOTU1MSAzLjc1ODRtMC4xNjIxIDAuMDAzOXMwLjE3NDE5LTUuODg4NyAwLjc0NzQ0LTMuNzI1OGMwLjU3MzE4IDIuMTYzIDAuMzU1MDQgMy43NjI0IDAuMzU1MDQgMy43NjI0bTAuMTYyIDAuMDA1N3MwLjIwNTgxLTUuODg1NyAwLjc3OTA1LTMuNzIyOGMwLjU3MzE4IDIuMTYyOSAwLjM1NTA0IDMuNzYyNCAwLjM1NTA0IDMuNzYyNG0wLjE2MiAwLjAwNTdzMC4yMDU4MS01Ljg4NTcgMC43Nzg5OS0zLjcyMjhjMC41NzMyNCAyLjE2MjkgMC4zNTUxIDMuNzYyNCAwLjM1NTEgMy43NjI0bTAuMTYyIDAuMDA1NnMwLjIwNTg3LTUuODg1NyAwLjc3OTA1LTMuNzIyOGMwLjU3MzI0IDIuMTYyOSAwLjM1NTEgMy43NjI0IDAuMzU1MSAzLjc2MjRtMC4xNjIgMC4wMDU3czAuMjA1ODEtNS44ODU3IDAuNzc5MDUtMy43MjI4IDAuMzAyNjcgMy43NjY4IDAuMzAyNjcgMy43NjY4bTAuMTYxOSAwLjAwODVzMC4zMTAwNi01Ljg4MTEgMC44NDQ5MS0zLjcwODRjMC41MzQ3OSAyLjE3MjcgMC4yODgzMyAzLjc2ODIgMC4yODgzMyAzLjc2ODJtMC4xNjE5IDAuMDA4NXMwLjMxMDA2LTUuODgxMSAwLjg0NDkxLTMuNzA4NGMwLjUzNDc5IDIuMTcyNyAwLjI4ODMzIDMuNzY4MSAwLjI4ODMzIDMuNzY4MW0wLjE2MTkgMC4wMDg1czAuMzEwMDYtNS44ODExIDAuODQ0ODUtMy43MDg0YzAuNTM0ODUgMi4xNzI3IDAuMjYyNTcgMy43Njg0IDAuMjYyNTcgMy43Njg0bTAuMTYxOCAwLjAwOTlzMC4zNjE0NS01Ljg3NzkgMC44NzcyLTMuNzAwNyAwLjI1NTM3IDMuNzcwMyAwLjI1NTM3IDMuNzcwM20wLjE2MTggMC4wMXMwLjM2MTQ1LTUuODc3OSAwLjg3NzI2LTMuNzAwN2MwLjUxNTc1IDIuMTc3MiAwLjI1NTM3IDMuNzcwNCAwLjI1NTM3IDMuNzcwNG0wLjE2MTggMC4wMDk5czAuMzYxNDUtNS44Nzc5IDAuODc3Mi0zLjcwMDdjMC41MTU4MSAyLjE3NzIgMC4yNTUzNyAzLjc3MDMgMC4yNTUzNyAzLjc3MDNtMC4xNjE4IDAuMDA5OXMwLjM2MTQ1LTUuODc3OSAwLjg3NzI2LTMuNzAwN2MwLjUxNTc1IDIuMTc3MiAwLjM4NjIzIDMuNzY4MiAwLjM4NjIzIDMuNzY4Mm0wLjE2MiAwLjAwMjdzMC4xMDAzNC01Ljg4NzkgMC43MTIxNi0zLjczNTggMC40MjI0MiAzLjc1NTIgMC40MjI0MiAzLjc1NTJtMC4xNjIgMC4wMDI3czAuMTAwMzQtNS44ODc5IDAuNzEyMTYtMy43MzU4IDAuNTU4MDQgMy43MzY0IDAuNTU4MDQgMy43MzY0bTAuMTYyLTAuMDA0OHMtMC4xNzEyLTUuODg2NSAwLjUzOTI1LTMuNzY0OGMwLjcxMDM5IDIuMTIxNyAwLjU5NTAzIDMuNzMxOCAwLjU5NTAzIDMuNzMxOG0wLjE2Mi0wLjAwNDdzLTAuMTcxMi01Ljg4NjUgMC41MzkxOC0zLjc2NDhjMC43MTAzOSAyLjEyMTcgMC42ODQ1NyAzLjcyNzUgMC42ODQ1NyAzLjcyNzVtMC4xNjE4LTAuMDA5NnMtMC4zNTAyMi01Ljg3ODggMC40MjQ0NC0zLjc3OTYgMC43MDgzMSAzLjcxMjIgMC43MDgzMSAzLjcxMjJtMC4xNjE5LTAuMDA5NnMtMC4zNTAyMi01Ljg3ODggMC40MjQ0NC0zLjc3OTdjMC43NzQ2NiAyLjA5OTIgMC43MDgzNyAzLjcxMjIgMC43MDgzNyAzLjcxMjJtMC4xNjE4LTAuMDA5NnMtMC4zNTAyMi01Ljg3ODggMC40MjQ0NC0zLjc3OTYgMC43MDgzMSAzLjcxMjIgMC43MDgzMSAzLjcxMjJtMC4xNjE5LTAuMDA5NnMtMC4zOTQ3OC01Ljg3NDUgMC40MTE2OC0zLjc4NzRjMC44MDY1MiAyLjA4NzIgMC43NjQ3MSAzLjcwMSAwLjc2NDcxIDMuNzAxbTAuMTYxNy0wLjAxMjFzLTAuNDM5NTgtNS44NzI5IDAuMzY2OTQtMy43ODU3YzAuODA2NDYgMi4wODcyIDAuNzY0NzEgMy43MDEgMC43NjQ3MSAzLjcwMW0wLjE2MTctMC4wMTIxcy0wLjQzOTU4LTUuODcyOSAwLjM2Njk0LTMuNzg1N2MwLjgwNjQ2IDIuMDg3MiAwLjc2NDcxIDMuNzAxIDAuNzY0NzEgMy43MDFtMC4xNjE2LTAuMDEyMXMtMC40Mzk1MS01Ljg3MjkgMC4zNjY5NC0zLjc4NTdjMC44MDY1MiAyLjA4NzIgMC43NjQ3MSAzLjcwMSAwLjc2NDcxIDMuNzAxbTAuMTYxNy0wLjAxMjFzLTAuNDM5NTgtNS44NzI5IDAuMzY2OTQtMy43ODU3YzAuODA2NDYgMi4wODcyIDAuNzc4ODEgMy42OTg0IDAuNzc4ODEgMy42OTg0bTAuMTYxNi0wLjAxMjlzLTAuNDY3OTYtNS44NzA2IDAuMzQ4NjMtMy43ODc0IDAuNzgyNTkgMy42OTcyIDAuNzgyNTkgMy42OTcybTAuMTYxNi0wLjAxMjlzLTAuNDY3OTYtNS44NzA3IDAuMzQ4NjMtMy43ODc0YzAuODE2NTMgMi4wODMyIDAuNzgyNTkgMy42OTcyIDAuNzgyNTkgMy42OTcybTAuMTYxNi0wLjAxMjlzLTAuNDY3OTYtNS44NzA2IDAuMzQ4NjMtMy43ODc0IDAuNzgyNTkgMy42OTcyIDAuNzgyNTkgMy42OTcybTAuMTYxNi0wLjAxMjlzLTAuNDY3OTYtNS44NzA3IDAuMzQ4NjMtMy43ODc0YzAuODE2NTMgMi4wODMyIDAuNzgyNTkgMy42OTczIDAuNzgyNTkgMy42OTczbTAuMTYxNi0wLjAxMjlzLTAuNDY3OS01Ljg3MDcgMC4zNDg2My0zLjc4NzRjMC44MTY1OSAyLjA4MzIgMC43ODI1OSAzLjY5NzIgMC43ODI1OSAzLjY5NzJtMC4xNjE2LTAuMDEyOXMtMC40Njc5Ni01Ljg3MDYgMC4zNDg2My0zLjc4NzRjMC44MTY1MyAyLjA4MzIgMC43ODI1OSAzLjY5NzIgMC43ODI1OSAzLjY5NzJtMC4xNjE2LTAuMDEyOXMtMC40Njc5LTUuODcwNyAwLjM0ODYzLTMuNzg3NGMwLjgxNjU5IDIuMDgzMiAwLjc4MjU5IDMuNjk3MyAwLjc4MjU5IDMuNjk3M20wLjE2MTYtMC4wMTI5cy0wLjQ2Nzk2LTUuODcwNyAwLjM0ODYzLTMuNzg3NGMwLjgxNjUzIDIuMDgzMiAwLjc4MjU5IDMuNjk3MiAwLjc4MjU5IDMuNjk3Mm0wLjE2MTYtMC4wMTI5cy0wLjQ2Nzk2LTUuODcwNyAwLjM0ODYzLTMuNzg3NCAwLjc4MjU5IDMuNjk3MyAwLjc4MjU5IDMuNjk3M20wLjE2MTYtMC4wMTI5cy0wLjQwNDA1LTUuODg4NCAwLjM2NjMzLTMuNzg3N2MwLjc3MDM5IDIuMTAwNyAwLjcwMDgxIDMuNzEzNSAwLjcwMDgxIDMuNzEzNW0wLjE2MTktMC4wMDkzcy0wLjMzODMyLTUuODc5NSAwLjQzMjEzLTMuNzc4OGMwLjc3MDM5IDIuMTAwOCAwLjcwMDgxIDMuNzEzNSAwLjcwMDgxIDMuNzEzNW0wLjE2MTgtMC4wMDkzcy0wLjMzODI2LTUuODc5NSAwLjQzMjEzLTMuNzc4N2MwLjc3MDM5IDIuMTAwNyAwLjcwMDgxIDMuNzEzNSAwLjcwMDgxIDMuNzEzNW0wLjE2MTktMC4wMDkzcy0wLjMzODMyLTUuODc5NCAwLjQzMjA3LTMuNzc4NyAwLjcwMDgxIDMuNzEzNSAwLjcwMDgxIDMuNzEzNW0wLjE2MTktMC4wMDkzcy0wLjMzODMyLTUuODc5NSAwLjQzMjA3LTMuNzc4OGMwLjc3MDM5IDIuMTAwOCAwLjcwMDgxIDMuNzEzNiAwLjcwMDgxIDMuNzEzNm0wLjA4ODMtMC4wMDQzcy0wLjE5MDkyLTUuODg2MiAwLjUyNjYxLTMuNzY2OCAwLjYwNzYgMy43MyAwLjYwNzYgMy43M20wLjE2Mi0wLjAwNTJzLTAuMTkwOTgtNS44ODYyIDAuNTI2NTUtMy43NjY3YzAuNzE3NTkgMi4xMTk0IDAuNjA3NiAzLjczIDAuNjA3NiAzLjczbTAuMTYyLTAuMDA1M3MtMC4xMjg5Ny01Ljg5MjIgMC41NDM3Ni0zLjc1ODFjMC42NzI2NyAyLjEzNDEgMC41Mjg4MSAzLjc0MTkgMC41Mjg4MSAzLjc0MTltMC4xNjItMC4wMDE4cy0wLjA2Njc3Mi01Ljg4ODggMC42MDU5Ni0zLjc1NDhjMC42NzI2NyAyLjEzNDEgMC41Mjg4MSAzLjc0MTkgMC41Mjg4MSAzLjc0MTltMC4xNjIxLTAuMDAxOHMwLjAwMjA3NS01LjkwMTYgMC42MjQ2My0zLjc1MjRjMC42MjI2OCAyLjE0OTIgMC40NDEyMiAzLjc1MzMgMC40NDEyMiAzLjc1MzNtMC4xNjIxIDJlLTNzMC4wNzA5MjMtNS44ODg4IDAuNjkzNTQtMy43Mzk2IDAuNDQxMTYgMy43NTMzIDAuNDQxMTYgMy43NTMzbTAuMTYyMSAyZS0zczAuMDcwODYyLTUuODg4OCAwLjY5MzQ4LTMuNzM5NmMwLjYyMjY4IDIuMTQ5MiAwLjM2ODM1IDMuNzU2NCAwLjM2ODM1IDMuNzU2NG0wLjE2MiA2ZS0zczAuMjE2NDMtNS44ODUyIDAuNzg1NzEtMy43MjEzYzAuNTY5MzQgMi4xNjM5IDAuMzQ4MzMgMy43NjMgMC4zNDgzMyAzLjc2M20wLjE2MiAwLjAwNTlzMC4yMTY0My01Ljg4NTIgMC43ODU3Ny0zLjcyMTNjMC41NjkyOCAyLjE2MzkgMC4zNDgyNyAzLjc2MzEgMC4zNDgyNyAzLjc2MzFtMC4xNjIgMC4wMDU5czAuMjkwNDctNS44ODUgMC44MDUyNC0zLjcwNzVjMC41MTQ4MyAyLjE3NzYgMC4yNTM3MiAzLjc3MDYgMC4yNTM3MiAzLjc3MDZtMC4xNjE4IDAuMDFzMC4zNjQwOC01Ljg3NzkgMC44Nzg5MS0zLjcwMDQgMC4yNTM3MiAzLjc3MDYgMC4yNTM3MiAzLjc3MDZtMC4xNjE4IDAuMDFzMC4zNjQwOC01Ljg3NzkgMC44Nzg5MS0zLjcwMDRjMC41MTQ4MyAyLjE3NzYgMC4xODA3MiAzLjc3NCAwLjE4MDcyIDMuNzc0bTAuMTYxNSAwLjAxNHMwLjUwODc5LTUuODY3MiAwLjk2OTc5LTMuNjc3NyAwLjE2MDc3IDMuNzc1NyAwLjE2MDc3IDMuNzc1N20wLjE2MTUgMC4wMTRzMC41MDg3OS01Ljg2NzIgMC45Njk3OS0zLjY3NzZjMC40NjEgMi4xODk1IDAuMTYwNzcgMy43NzU3IDAuMTYwNzcgMy43NzU3bTAuMTYxNSAwLjAxNHMwLjU3ODMxLTUuODY3NCAwLjk4Nzc5LTMuNjY3NmMwLjQwOTQyIDIuMTk5OCAwLjA3MTk2IDMuNzc4NCAwLjA3MTk2IDMuNzc4NG0wLjE2MTEgMC4wMTc4czAuNjQ2NDgtNS44NTM2IDEuMDU2LTMuNjUzOGMwLjQwOTQyIDIuMTk5OCAwLjA3MTk2IDMuNzc4NCAwLjA3MTk2IDMuNzc4NG0wLjE2MTEgMC4wMTc4czAuNjQ2NTQtNS44NTM2IDEuMDU2LTMuNjUzOWMwLjQwOTQyIDIuMTk5OCAwLjA3MTk2IDMuNzc4NCAwLjA3MTk2IDMuNzc4NG0wLjE2MTEgMC4wMTc4czAuNzEwNTctNS44NDY2IDEuMDcxOC0zLjYzODRjMC4zNjEyMSAyLjIwODItMC4wMTA3NDIgMy43NzkxLTAuMDEwNzQyIDMuNzc5MW0wLjE2MDcgMC4wMjE0czAuNzc0NTQtNS44MzgxIDEuMTM1Ny0zLjYyOTljMC4zNjEyMSAyLjIwODItMC4wMTA2ODEgMy43NzkyLTAuMDEwNjgxIDMuNzc5Mm0wLjE2MDcgMC4wMjEzczAuNzc0NDgtNS44MzgxIDEuMTM1Ni0zLjYyOTljMC4zNjEyMSAyLjIwODItMC4wMTA2ODEgMy43NzkxLTAuMDEwNjgxIDMuNzc5MW0wLjE2MDcgMC4wMjEzczAuODMyODItNS44MzAzIDEuMTQ5OC0zLjYxNTNjMC4zMTY5NiAyLjIxNS0wLjA4NjMwNCAzLjc3ODEtMC4wODYzMDQgMy43NzgxbTAuMTYwMyAwLjAyNDVzMC44OTEwNS01LjgyMTQgMS4yMDgtMy42MDY0YzAuMzE2OTYgMi4yMTUtMC4wODYzMDQgMy43NzgxLTAuMDg2MzA0IDMuNzc4MW0wLjE2MDMgMC4wMjQ2czAuODkxMDUtNS44MjE1IDEuMjA4LTMuNjA2NWMwLjMxNzAyIDIuMjE1LTAuMDg2MzA0IDMuNzc4Mi0wLjA4NjMwNCAzLjc3ODJtMC4xNjAzIDAuMDI0NXMwLjk0NDIxLTUuODE4NCAxLjIyMTMtMy41OTgxYzAuMjc3MSAyLjIyMDMtMC4xNTQyNCAzLjc3Ni0wLjE1NDI0IDMuNzc2bTAuMTU5OCAwLjAyNzRzMC45OTU2LTUuODA0NSAxLjI3MjctMy41ODQyYzAuMjc3MDQgMi4yMjA0LTAuMTU0MjQgMy43NzYxLTAuMTU0MjQgMy43NzYxbTAuMTU5OCAwLjAyNzRzMC45OTU2LTUuODA0NiAxLjI3MjctMy41ODQyYzAuMjc3MDQgMi4yMjAzLTAuMTU0MjQgMy43NzYtMC4xNTQyNCAzLjc3Nm0wLjE1OTcgMC4wMjc0czAuOTk1NjctNS44MDQ1IDEuMjcyOC0zLjU4NDJjMC4yNzcwNCAyLjIyMDQtMC4yMjg3NiAzLjc2NzgtMC4yMjg3NiAzLjc2NzhtMC4xNTkgMC4wMzE0czEuMTQyNi01Ljc3NzEgMS4zNjMyLTMuNTUwNWMwLjIyMDY0IDIuMjI2Ni0wLjI1IDMuNzcwOC0wLjI1IDMuNzcwOG0wLjE1OTEgMC4wMzE0czEuMTQyNi01Ljc3NzIgMS4zNjMyLTMuNTUwNWMwLjIyMDU4IDIuMjI2Ni0wLjI1MDA2IDMuNzcwNy0wLjI1MDA2IDMuNzcwN20wLjE1OTEgMC4wMzE1czEuMTQyNi01Ljc3NzIgMS4zNjMyLTMuNTUwNmMwLjIyMDU4IDIuMjI2Ni0wLjI1MDA2IDMuNzcwOC0wLjI1MDA2IDMuNzcwOG0wLjE1OTEgMC4wMzE0czEuMjQ1Ny01Ljc2MDcgMS4zODczLTMuNTI3NmMwLjE0MTY2IDIuMjMzLTAuMzgzMyAzLjc1OTUtMC4zODMzIDMuNzU5NW0wLjE1NzggMC4wMzdzMS4zNDY0LTUuNzMzMSAxLjQ4OC0zLjUwMDFjMC4xNDE3MiAyLjIzMy0wLjM4MzMgMy43NTk1LTAuMzgzMyAzLjc1OTVtMC4xNTc4IDAuMDM3czEuMzQ2NC01LjczMzEgMS40ODgxLTMuNTAwMWMwLjE0MTY2IDIuMjMzLTAuMzgzMzYgMy43NTk1LTAuMzgzMzYgMy43NTk1bTAuMTU3OCAwLjAzNzFzMS40NDg1LTUuNzE2MyAxLjUxMTktMy40Nzk3YzAuMDYzNDc3IDIuMjM2Ni0wLjUxNDY1IDMuNzQzOC0wLjUxNDY1IDMuNzQzOG0wLjE1NjQgMC4wNDI1czEuNTQ2MS01LjY4MjQgMS42MDk2LTMuNDQ1OWMwLjA2MzQxNiAyLjIzNjYtMC41MTQ2NSAzLjc0MzgtMC41MTQ2NSAzLjc0MzhtMC4xNTY0IDAuMDQyNXMxLjU0NjEtNS42ODI1IDEuNjA5Ni0zLjQ0NTljMC4wNjM0NzcgMi4yMzY2LTAuNTE0NjUgMy43NDM4LTAuNTE0NjUgMy43NDM4bTAuMDYzNSAwLjAxNzVzMS43MzEtNS42MjkgMS43MjEzLTMuMzkxNWMtMC4wMDk2NDQgMi4yMzc1LTAuNjM2NjYgMy43MjUtMC42MzY2NiAzLjcyNW0wLjE1NDkgMC4wNDc2czEuNzMxLTUuNjI5IDEuNzIxNC0zLjM5MTVjLTAuMDA5NjQ0IDIuMjM3Ni0wLjYzNjcyIDMuNzI1LTAuNjM2NzIgMy43MjVtMC4xNTUgMC4wNDc3czEuODE0Mi01LjYxOTggMS43NDIyLTMuMzgzNGMtMC4wNzE4OTkgMi4yMzY0LTAuNzQwMTEgMy43MDU5LTAuNzQwMTEgMy43MDU5bTAuMTUzNiAwLjA1MTlzMS44ODctNS41Nzg3IDEuODE1MS0zLjM0MjRjLTAuMDcxOTYgMi4yMzY0LTAuNzQwMTcgMy43MDU5LTAuNzQwMTcgMy43MDU5bTAuMTUzNiAwLjA1MTlzMS44ODctNS41Nzg3IDEuODE1MS0zLjM0MjNjLTAuMDcxOTYgMi4yMzY0LTAuNzk2NjMgMy42ODk4LTAuNzk2NjMgMy42ODk4bTAuMTUyNSAwLjA1NXMxLjk5NzctNS41NDAxIDEuODgxMy0zLjMwNTVjLTAuMTE2NDYgMi4yMzQ2LTAuODEzNzggMy42OTA1LTAuODEzNzggMy42OTA1bTAuMTUyNSAwLjA1NXMxLjk5NzctNS41NDAxIDEuODgxMy0zLjMwNTVjLTAuMTE2NDYgMi4yMzQ2LTAuODI5ODMgMy42ODQ5LTAuODI5ODMgMy42ODQ5bTAuMTUyMiAwLjA1NThzMi4wMjk3LTUuNTI4NCAxLjkwMDMtMy4yOTQ2Yy0wLjEyOTMzIDIuMjMzOC0wLjgzNTA4IDMuNjg1Ny0wLjgzNTA4IDMuNjg1N20wLjE1MjIgMC4wNTU4czIuMDI5Ny01LjUyODQgMS45MDA0LTMuMjk0NmMtMC4xMjkzMyAyLjIzMzgtMC44MzUwOCAzLjY4NTctMC44MzUwOCAzLjY4NTdtMC4xNTIyIDAuMDU1OHMyLjAyOTctNS41Mjg0IDEuOTAwMy0zLjI5NDZjLTAuMTI5MzMgMi4yMzM5LTAuODM1MDIgMy42ODU3LTAuODM1MDIgMy42ODU3bTAuMTUyMiAwLjA1NTlzMi4wMjk3LTUuNTI4NCAxLjkwMDMtMy4yOTQ2Yy0wLjEyOTMzIDIuMjMzOC0wLjc2MTQ4IDMuNzAzNy0wLjc2MTQ4IDMuNzAzN20wLjE1MzYgMC4wNTE5czEuODg3NC01LjU3ODQgMS44MTUzLTMuMzQyMWMtMC4wNzIwODMgMi4yMzY0LTAuNzQwNDIgMy43MDU4LTAuNzQwNDIgMy43MDU4bTAuMTUzNiAwLjA1MTlzMS43Njg3LTUuNTkyNSAxLjc4NTgtMy4zNTUxYzAuMDE3MTUxIDIuMjM3My0wLjU5MTk4IDMuNzMyMS0wLjU5MTk4IDMuNzMyMW0wLjE1NTUgMC4wNDU4czEuNjYzNC01LjY0OSAxLjY4MDUtMy40MTE3YzAuMDE3MTUxIDIuMjM3NC0wLjU5MjA0IDMuNzMyMi0wLjU5MjA0IDMuNzMyMm0wLjE1NTUgMC4wNDU4czEuNTAyNi01LjY3ODIgMS42NDM0LTMuNDQ1NGMwLjE0MDkzIDIuMjMyOC0wLjM4NDUyIDMuNzU5LTAuMzg0NTIgMy43NTltMC4xNTc4IDAuMDM3MXMxLjM0ODEtNS43MzIgMS40ODkxLTMuNDk5MmMwLjE0MDg3IDIuMjMyOC0wLjM4NDU4IDMuNzU5LTAuMzg0NTggMy43NTltMC4yOTkzIDAuMDYyOXMxLjA2NjktNS43OTE2IDEuMzE2Ni0zLjU2ODFjMC4yNDk3NiAyLjIyMzUtMC4wOTgwODMgMy43ODg3LTAuMDk4MDgzIDMuNzg4N20wLjE2MDMgMC4wMjM3czAuODYyNDktNS44MjU1IDEuMTkwMy0zLjYxMjJjMC4zMjc3NiAyLjIxMzMgMC4wMzg1NzQgMy43ODYyIDAuMDM4NTc0IDMuNzg2Mm0wLjE2MTEgMC4wMTc5czAuNjUxMjQtNS44NTI4IDEuMDU4OC0zLjY1MjhjMC40MDc2NSAyLjIgMC4xNzYzOSAzLjc3OTggMC4xNzYzOSAzLjc3OThtMC4xNjE3IDAuMDEyMXMwLjQzNzg3LTUuODcyNyAwLjkyNTI5LTMuNjg5YzAuNDg3NDMgMi4xODM4IDAuMzEyNDQgMy43NyAwLjMxMjQ0IDMuNzdtMC4xNjIgMC4wMDYyczAuMjI2NjgtNS44ODQ3IDAuNzkyMjQtMy43MTk4YzAuNTY1NDkgMi4xNjQ5IDAuNDQ0NTggMy43NTc0IDAuNDQ0NTggMy43NTc0bTAuMTYyMSA2ZS00czAuMDIxMzAxLTUuODg5IDAuNjYxOTktMy43NDUyIDAuNTcwOTIgMy43NDI5IDAuNTcwOTIgMy43NDI5bTAuMTYyLTAuMDA0OHMtMC4xNzUxNy01Ljg4NjUgMC41MzY2OC0zLjc2NTJjMC43MTE4NSAyLjEyMTIgMC41OTc2IDMuNzMxNCAwLjU5NzYgMy43MzE0bTAuMjU0NS0wLjAxNDFzLTAuMzYwNjYtNS44NzggMC40MTc3Mi0zLjc4MDNjMC43NzgzOCAyLjA5NzggMC43MTQ5IDMuNzEwOCAwLjcxNDkgMy43MTA4bTAuMTYxOC0wLjAwOTlzLTAuNDQ2OTYtNS44Njk0IDAuMzkyODgtMy43OTU0YzAuODM5ODQgMi4wNzM5IDAuODIzOTEgMy42ODgxIDAuODIzOTEgMy42ODgxbTAuMTYxNC0wLjAxNDZzLTAuNjEyNDktNS44NDYgMC4yODM2My0zLjc5NTdjMC44OTYxOCAyLjA1MDMgMC45MjQzMiAzLjY2NDQgMC45MjQzMiAzLjY2NDRtMC4xNjEtMC4wMTkxcy0wLjY5MzU0LTUuODQ4MiAwLjIwMjU4LTMuNzk4YzAuODk2MTIgMi4wNTAzIDAuOTkxMjEgMy42NDggMC45OTEyMSAzLjY0OG0wLjE2MDUtMC4wMjI4cy0wLjgyOTM1LTUuODMwNSAwLjExNDItMy44MDE2YzAuOTQzNiAyLjAyODkgMS4wMDkzIDMuNjQxOCAxLjAwOTMgMy42NDE4bTAuMTYwNS0wLjAyMjhzLTAuODI5MzUtNS44MzA2IDAuMTE0Mi0zLjgwMTdjMC45NDM2IDIuMDI4OSAxLjAwOTMgMy42NDE5IDEuMDA5MyAzLjY0MTltMC4xNjA1LTAuMDIyOHMtMC44OTIxNS01LjgxNTIgMC4wOTU1ODEtMy44MDc0YzAuOTg3NjcgMi4wMDc4IDEuMDg4NiAzLjYxODkgMS4wODg2IDMuNjE4OW0wLjE2LTAuMDI2M3MtMC45NTY2Ni01LjgxMSAwLjAzMTA2Ny0zLjgwMzNjMC45ODc3MyAyLjAwNzggMS4wODg2IDMuNjE4OSAxLjA4ODYgMy42MTg5bTAuMTYtMC4wMjYzcy0wLjk1NjYtNS44MTEgMC4wMzEwNjctMy44MDMzYzAuOTg3NzMgMi4wMDc4IDEuMTUwNyAzLjU5NzggMS4xNTA3IDMuNTk3OG0wLjE1OTQtMC4wMjk4cy0xLjA4NDItNS43ODg2LTAuMDUyNjEyLTMuODAzYzEuMDMxNyAxLjk4NTUgMS4xNjggMy41OTQxIDEuMTY4IDMuNTk0MW0wLjE1OTMtMC4wMjk5cy0xLjA4NDItNS43ODg2LTAuMDUyNTUxLTMuODAzYzEuMDMxNiAxLjk4NTUgMS4yMjY5IDMuNTc1NCAxLjIyNjkgMy41NzU0bTAuMTU4Ny0wLjAzMzFzLTEuMjA0OC01Ljc2NDctMC4xMzE5Ni0zLjgwMTFjMS4wNzI5IDEuOTYzNiAxLjI0MjcgMy41NjkgMS4yNDI3IDMuNTY5bTAuMTU4Ny0wLjAzMzJzLTEuMjA0OC01Ljc2NDctMC4xMzE5LTMuODAxMWMxLjA3MjggMS45NjM2IDEuMzEwOSAzLjU0MyAxLjMxMDkgMy41NDNtMC4xNTc4LTAuMDM3cy0xLjM0NTctNS43MzM0LTAuMjI1MDQtMy43OTY3YzEuMTIwNiAxLjkzNjcgMS4zMjk4IDMuNTM3NCAxLjMyOTggMy41Mzc0bTAuMTU3OC0wLjAzN3MtMS4zNDU2LTUuNzMzMy0wLjIyNTA0LTMuNzk2NmMxLjEyMDcgMS45MzY2IDEuMzI5OCAzLjUzNzQgMS4zMjk4IDMuNTM3NG0wLjE1NzgtMC4wMzdzLTEuMzQ1Ny01LjczMzMtMC4yMjUxLTMuNzk2N2MxLjEyMDcgMS45MzY3IDEuMzI5OCAzLjUzNzQgMS4zMjk4IDMuNTM3NG0wLjE5NDktMC4wNDZzLTEuNDItNS43MTU2LTAuMjc0MjktMy43OTM1YzEuMTQ1NyAxLjkyMiAxLjM3NTcgMy41MTk5IDEuMzc1NyAzLjUxOTltMC4xNTczLTAuMDM5MXMtMS40Mi01LjcxNTYtMC4yNzQyOS0zLjc5MzZjMS4xNDU3IDEuOTIyMSAxLjM3NTcgMy41MiAxLjM3NTcgMy41Mm0wLjE1NzMtMC4wMzkxcy0xLjQyLTUuNzE1Ni0wLjI3NDI5LTMuNzkzNSAxLjM3NTcgMy41MTk5IDEuMzc1NyAzLjUxOTltMC4xNTczLTAuMDM5MXMtMS4zNjcxLTUuNzMyNS0wLjI1Nzc1LTMuNzg5M2MxLjEwOTMgMS45NDMyIDEuMzA5MSAzLjU0NSAxLjMwOTEgMy41NDVtMC4xNTgtMC4wMzYxcy0xLjMxMjItNS43NDEtMC4yMDI4OC0zLjc5NzhjMS4xMDkyIDEuOTQzMSAxLjMwOTEgMy41NDUgMS4zMDkxIDMuNTQ1bTAuMTU4MS0wLjAzNjFzLTEuMzEyMi01Ljc0MS0wLjIwMjk0LTMuNzk3OCAxLjMwOTEgMy41NDUgMS4zMDkxIDMuNTQ1bTAuMTU4LTAuMDM2MXMtMS4yMjQ4LTUuNzc1My0wLjE3NzEyLTMuNzk4MiAxLjE5NzEgMy41ODQ1IDEuMTk3MSAzLjU4NDVtMC4xNTkxLTAuMDMxMXMtMS4xMzEyLTUuNzc5NS0wLjA4MzQ5Ni0zLjgwMjQgMS4xOTcxIDMuNTg0NSAxLjE5NzEgMy41ODQ1bTAuMTU5MS0wLjAzMTFzLTEuMDU0NC01Ljc5NjMtMC4wNTk4MTQtMy43OTJjMC45OTQ2MyAyLjAwNDMgMS4xMDExIDMuNjE1MSAxLjEwMTEgMy42MTUxbTAuMTU5OS0wLjAyNjlzLTAuOTc2NjgtNS44MDc2IDAuMDE3OTQ0LTMuODAzM2MwLjk5NDYzIDIuMDA0MyAxLjEwMTEgMy42MTUxIDEuMTAxMSAzLjYxNTFtMC4wNzg2LTAuMDEwN3MtMC44MTMwNS01LjgzMjggMC4xMjQ4Mi0zLjgwMTMgMC45OTkwOCAzLjY0NDYgMC45OTkwOCAzLjY0NDZtMC4xNjA1LTAuMDIyM3MtMC44MTI5OS01LjgzMjggMC4xMjQ4OC0zLjgwMTMgMC45OTkwOCAzLjY0NDYgMC45OTkwOCAzLjY0NDZtMC4wOC0wLjAwNzlzLTAuNjUwODItNS44NTMxIDAuMjMwMzUtMy43OTY0YzAuODgxMSAyLjA1NjggMC44OTc0NiAzLjY3MSAwLjg5NzQ2IDMuNjcxbTAuMTYxMS0wLjAxNzlzLTAuNjUwODItNS44NTMxIDAuMjMwMzUtMy43OTY0YzAuODgxMSAyLjA1NjggMC44OTc1MiAzLjY3MSAwLjg5NzUyIDMuNjcxbTAuMTYxMS0wLjAxNzlzLTAuNTc0NC01Ljg2MjYgMC4yNTI2OS0zLjc4MzRjMC44MjcwMyAyLjA3OSAwLjgwMTIxIDMuNjkzMiAwLjgwMTIxIDMuNjkzMm0wLjE2MTYtMC4wMTM3cy0wLjQ5NzYyLTUuODY4MSAwLjMyOTQ3LTMuNzg5MWMwLjgyNzA5IDIuMDc5MSAwLjgwMTI3IDMuNjkzMiAwLjgwMTI3IDMuNjkzMm0wLjE2MTUtMC4wMTM3cy0wLjQyODc3LTUuODg3NyAwLjM0ODYzLTMuNzg5NmMwLjc3NzM0IDIuMDk4MiAwLjcxMzE0IDMuNzExMiAwLjcxMzE0IDMuNzExMm0wLjE2MTgtMC4wMDk4cy0wLjM1Nzc5LTUuODc4NCAwLjQxOTU2LTMuNzgwMmMwLjc3NzQgMi4wOTgyIDAuNzEzMTQgMy43MTEyIDAuNzEzMTQgMy43MTEybTAuMTYxOC0wLjAwOThzLTAuMzU3NzktNS44Nzg0IDAuNDE5NTYtMy43ODAyYzAuNzc3NCAyLjA5ODIgMC43MTMyIDMuNzExMiAwLjcxMzIgMy43MTEybTAuMTYxOC0wLjAwOTlzLTAuMjg1ODktNS44ODY5IDAuNDM5NzYtMy43NzAzYzAuNzI1NTkgMi4xMTY2IDAuNjIxODMgMy43Mjc1IDAuNjIxODMgMy43Mjc1bTAuMTYyLTAuMDA1OXMtMC4yMTMzOC01Ljg4NTMgMC41MTIyMS0zLjc2ODdjMC43MjU2NSAyLjExNjYgMC42MjE4MyAzLjcyNzUgMC42MjE4MyAzLjcyNzVtMC4xNjItMC4wMDU5cy0wLjIxMzQ0LTUuODg1MyAwLjUxMjIxLTMuNzY4N2MwLjcyNTU5IDIuMTE2NiAwLjYyMTgzIDMuNzI3NSAwLjYyMTgzIDMuNzI3NW0wLjE2Mi0wLjAwNTlzLTAuMTM3NzYtNS44ODczIDAuNTMzMjYtMy43NTI4YzAuNjcwOTYgMi4xMzQ2IDAuNTI1NzYgMy43NDI0IDAuNTI1NzYgMy43NDI0bTAuMTYyMS0wLjAwMTdzLTAuMDYyMDEyLTUuODg4OCAwLjYwODk1LTMuNzU0M2MwLjY3MDk2IDIuMTM0NiAwLjUyNTgyIDMuNzQyNCAwLjUyNTgyIDMuNzQyNG0wLjE2MjEtMC4wMDE3cy0wLjA2MjA3My01Ljg4ODggMC42MDg4OS0zLjc1NDNjMC42NzA5NiAyLjEzNDYgMC40NTY1NCAzLjc0MzIgMC40NTY1NCAzLjc0MzJtMC4xNjIxIDAuMDAyMXMwLjA3NjQ3Ny01Ljg4ODcgMC42OTcwOC0zLjczOWMwLjYyMDU0IDIuMTQ5OCAwLjQzNzYyIDMuNzUzNyAwLjQzNzYyIDMuNzUzN20wLjE2MjEgMC4wMDIxczAuMDc2NDc3LTUuODg4NyAwLjY5NzAyLTMuNzM5YzAuNjIwNiAyLjE0OTggMC40Mzc2OCAzLjc1MzcgMC40Mzc2OCAzLjc1MzdtMC4xNjIgMC4wMDIxczAuMDc2NDc3LTUuODg4NyAwLjY5NzA4LTMuNzM5YzAuNjIwNiAyLjE0OTggMC4zNzM0MSAzLjc1ODEgMC4zNzM0MSAzLjc1ODFtMC4xNjIgMC4wMDU2czAuMjA0NzEtNS44ODU3IDAuNzc4MzItMy43MjI5YzAuNTczNjcgMi4xNjI4IDAuMzU1ODQgMy43NjIzIDAuMzU1ODQgMy43NjIzbTAuMTYyIDAuMDA1N3MwLjIwNDY1LTUuODg1NyAwLjc3ODMyLTMuNzIyOSAwLjM1NTg0IDMuNzYyMyAwLjM1NTg0IDMuNzYyM20wLjE2MiAwLjAwNTZzMC4yNjUyNi01Ljg5NDYgMC43OTQ2Mi0zLjcyMDZjMC41MjkzNiAyLjE3NDEgMC4yNzg5MyAzLjc2ODkgMC4yNzg5MyAzLjc2ODltMC4xNjE5IDAuMDA4OXMwLjMyNDc3LTUuODgwMiAwLjg1NDEzLTMuNzA2MmMwLjUyOTM2IDIuMTc0MSAwLjI3ODkzIDMuNzY4OSAwLjI3ODkzIDMuNzY4OW0wLjE2MTkgMC4wMDg5czAuMzI0ODMtNS44ODAyIDAuODU0MTktMy43MDYyYzAuNTI5MzYgMi4xNzQxIDAuMjc4ODcgMy43Njg5IDAuMjc4ODcgMy43Njg5bTAuMTYxOSAwLjAwODlzMC4zODIyLTUuODgwNSAwLjg2OTItMy42OTY2YzAuNDg3IDIuMTg0IDAuMjA1NTcgMy43NzM2IDAuMjA1NTcgMy43NzM2bTAuMTYxNyAwLjAxMjFzMC40MzkwOS01Ljg3MjkgMC45MjYwOS0zLjY4ODljMC40ODY5NCAyLjE4MzkgMC4yMDU1NyAzLjc3MzYgMC4yMDU1NyAzLjc3MzZtMC4xNjE2IDAuMDEyMXMwLjQzOTA5LTUuODcyOSAwLjkyNjA5LTMuNjg5YzAuNDg3IDIuMTg0IDAuMTUwMTUgMy43NzEgMC4xNTAxNSAzLjc3MW0wLjE2MTQgMC4wMTUxczAuNTQ5NjItNS44NjM2IDAuOTk1NDItMy42NzA4YzAuNDQ1NzQgMi4xOTI3IDAuMTM0NDYgMy43NzY3IDAuMTM0NDYgMy43NzY3bTAuMTYxNCAwLjAxNTFzMC41NDk2Mi01Ljg2MzYgMC45OTU0Mi0zLjY3MDhjMC40NDU3NCAyLjE5MjcgMC4xMzQ0NiAzLjc3NjcgMC4xMzQ0NiAzLjc3NjdtMC4xNjE0IDAuMDE1MXMwLjYwNDk4LTUuODY1NiAxLjAwOTgtMy42NjVjMC40MDQ4NSAyLjIwMDYgMC4wNjQwODcgMy43Nzg2IDAuMDY0MDg3IDMuNzc4Nm0wLjE2MTEgMC4wMTgxczAuNjU4NjktNS44NTI0IDEuMDYzNS0zLjY1MTdjMC40MDQ5MSAyLjIwMDYgMC4wNjQxNDggMy43Nzg2IDAuMDY0MTQ4IDMuNzc4Nm0wLjE2MTEgMC4wMTgyczAuNjU4NzUtNS44NTI0IDEuMDYzNi0zLjY1MTcgMC4wMDg0ODQgMy43NzU0IDAuMDA4NDg0IDMuNzc1NG0wLjE2MDcgMC4wMjEyczAuNzY5MS01LjgzODggMS4xMzIzLTMuNjMwOWMwLjM2MzIyIDIuMjA3OS0wLjAwNzI2MyAzLjc3OTEtMC4wMDcyNjMgMy43NzkxbTAuMTYwOCAwLjAyMTJzMC43NjkxLTUuODM4OCAxLjEzMjMtMy42MzA5YzAuMzYzMjIgMi4yMDc5LTAuMDA3MjYzIDMuNzc5MS0wLjAwNzI2MyAzLjc3OTFtMC4xMDMxIDAuMDEzMXMwLjg4NDM0LTUuODIyNCAxLjIwMzktMy42MDc4YzAuMzE5NTIgMi4yMTQ3LTAuMDgxOTA5IDMuNzc4My0wLjA4MTkwOSAzLjc3ODNtMC4xNjAzIDAuMDI0NHMwLjg4NDM0LTUuODIyNSAxLjIwMzktMy42MDc4YzAuMzE5NTIgMi4yMTQ3LTAuMDgxOTA5IDMuNzc4My0wLjA4MTkwOSAzLjc3ODNtMC4xNjAyIDAuMDI0NHMwLjk0NzI3LTUuODE1MSAxLjIxOTEtMy41OTQxYzAuMjcxOTEgMi4yMjEtMC4xNjMwOSAzLjc3NTYtMC4xNjMwOSAzLjc3NTZtMC4xNTk3IDAuMDI3OHMxLjAwOTMtNS44MDIxIDEuMjgxMS0zLjU4MTFjMC4yNzE4NSAyLjIyMS0wLjE2MzE1IDMuNzc1Ni0wLjE2MzE1IDMuNzc1Nm0wLjE1OTcgMC4wMjc4czEuMDgwNC01Ljc4OTUgMS4yOTc3LTMuNTYyNWMwLjIxNzI4IDIuMjI2OS0wLjI1NTc0IDMuNzcwNC0wLjI1NTc0IDMuNzcwNG0wLjE1OSAwLjAzMTdzMS4xNTE0LTUuNzc1NSAxLjM2ODYtMy41NDg1YzAuMjE3MjIgMi4yMjY5LTAuMzQyODMgMy43NTctMC4zNDI4MyAzLjc1N20wLjE1OCAwLjAzNjRzMS4zMjM0LTUuNzM4NSAxLjQ3NC0zLjUwNmMwLjE1MDY0IDIuMjMyNC0wLjM2ODIyIDMuNzYxLTAuMzY4MjIgMy43NjFtMC4xNTggMC4wMzY0czEuNDM5LTUuNzIxNiAxLjUwMTMtMy40ODUxYzAuMDYyMzc4IDIuMjM2NS0wLjUxNjQyIDMuNzQzNC0wLjUxNjQyIDMuNzQzNG0wLjE1NjQgMC4wNDI2czEuNzI0OC01LjY2NjIgMS42NTU5LTMuNDMwMmMtMC4wNjg3ODcgMi4yMzYtMC43MzQ4NiAzLjcwNjItMC43MzQ4NiAzLjcwNjJtMC4xNTM2IDAuMDUxOHMyLjA4ODQtNS41NDgyIDEuODYyMy0zLjMyMjRjLTAuMjI2MDEgMi4yMjU4LTEuMTg5OCAzLjU1NTItMS4xODk4IDMuNTU1Mm0wLjE0NDYgMC4wNzMyczIuODQ3OC01LjE2OTQgMi4zMDYtMi45OTg1Yy0wLjU0MTc1IDIuMTcwOS0xLjUwNDcgMy40NjY1LTEuNTA0NyAzLjQ2NjVtMC4xMzkyIDAuMDgzMXMzLjEzNzMtNC45OTc0IDIuNTAwNi0yLjg1MjVjLTAuNjM2ODQgMi4xNDQ4LTEuNjU1OCAzLjM5NjctMS42NTU4IDMuMzk2N20wLjEzNTMgMC4wODkyczMuMzY1NC00LjgzNTQgMi42MjA1LTIuNzI1OGMtMC43NDQ4NyAyLjEwOTctMS45Njk2IDMuMjEwNC0xLjk2OTYgMy4yMTA0bTAuMTI0OCAwLjEwMzVzMy45MjI0LTQuNDEzOSAyLjkxNTgtMi40MTYxYy0xLjAwNjUgMS45OTc5LTIuNTg5NyAyLjY5NjctMi41ODk3IDIuNjk2NyIvPiYjeGE7ICAgPC9nPiYjeGE7ICA8L2c+JiN4YTsgIDxwYXRoIHN0cm9rZS13aWR0aD0iLjczMSIgc3Ryb2tlPSIjNjY2IiBvcGFjaXR5PSIuNzUiIGZpbGw9InVybCgjYnApIiBkPSJtNDU5LjY2IDgyOC4wNnM2LjU0MSAzLjI3MiAxOC40NTUtMy44NWMxNS40MzctOS4yMjcgMzUuMzQ4LTQ2Ljk2NSAzNS44MzYtNTcuNzQ0IDIuMDU0LTQ1LjM3OCA4LjIxOS05MS40MiAyMC43OTUtMTIyLjA2IDI4LjUzNC02OS41MDYgMTI0Ljc0LTE3NC4xNiAxMjQuNzQtMzMwLjk0LTAuMDA2OTU4LTE0NC41My0xNDIuNTQtMzExLjg1LTMwOS41My0zMTMuMDktMjcxLjQxLTIuMDUxNi0zNDYuOTUgMjIwLjgyLTM0OS41MiAzMjguOS0xLjk2NCA4Mi41NzMgNDMuNDk2IDE3Mi43IDEwNy4wMSAyODAuNDkgNjMuNTE5IDEwNy43OSAzMC4wNjEgMTE5Ljk4IDQ5LjY4NyAxNjcuOTUgMTMuODMyIDMzLjgwNCAzMC4zNzEgNDguNCAzMC4zNzEgNDguNCIvPiYjeGE7IDwvZz4mI3hhOzwvc3ZnPg==;" vertex="1" parent="141">
                    <mxGeometry x="210" y="40" width="23.27" height="39.67" as="geometry"/>
                </mxCell>
            </root>
        </mxGraphModel>
    </diagram>
</mxfile>